<svg xmlns="http://www.w3.org/2000/svg" width="1880" height="660"><defs><linearGradient id="linear-gradient" x1="90.19" y1="711.64" x2="716.31" y2="372.85" gradientUnits="userSpaceOnUse"><stop offset="0" stop-color="#6b92d8"/><stop offset=".08" stop-color="#627ddf"/><stop offset=".24" stop-color="#626be4"/><stop offset=".38" stop-color="#6946ef"/><stop offset=".54" stop-color="#3970ec"/><stop offset=".63" stop-color="#4591ef"/><stop offset=".69" stop-color="#499ef0"/><stop offset=".75" stop-color="#4ca7f1"/><stop offset=".81" stop-color="#3883f3"/><stop offset=".86" stop-color="#53bff4"/><stop offset=".92" stop-color="#4aadf4"/><stop offset="1" stop-color="#4096f4"/></linearGradient><style>.cls-1,.cls-10,.cls-11,.cls-12,.cls-13,.cls-14,.cls-15,.cls-16,.cls-17,.cls-18,.cls-19,.cls-20,.cls-21,.cls-22,.cls-23,.cls-24,.cls-25,.cls-26,.cls-27,.cls-28,.cls-29,.cls-30,.cls-31,.cls-32,.cls-33,.cls-4,.cls-5,.cls-6,.cls-7,.cls-8,.cls-9{fill:#fff}.cls-10,.cls-11,.cls-12,.cls-13,.cls-14,.cls-15,.cls-16,.cls-17,.cls-18,.cls-19,.cls-20,.cls-21,.cls-22,.cls-23,.cls-24,.cls-25,.cls-26,.cls-27,.cls-28,.cls-29,.cls-30,.cls-31,.cls-32,.cls-33,.cls-4,.cls-5,.cls-6,.cls-7,.cls-8,.cls-9{isolation:isolate}.cls-4{opacity:.2}.cls-5{opacity:.99}.cls-6{opacity:.61}.cls-7{opacity:.93}.cls-8{opacity:.03}.cls-9{opacity:.88}.cls-10{opacity:.51}.cls-11{opacity:.71}.cls-12{opacity:.95}.cls-13{opacity:.84}.cls-14{opacity:.89}.cls-15{opacity:.91}.cls-16{opacity:.55}.cls-17{opacity:.26}.cls-18{opacity:.77}.cls-19{opacity:.58}.cls-20{opacity:.64}.cls-21{opacity:.49}.cls-22{opacity:.82}.cls-23{opacity:.98}.cls-24{opacity:.08}.cls-25{opacity:.15}.cls-26{opacity:.67}.cls-27{opacity:.35}.cls-28{opacity:.8}.cls-29{opacity:.73}.cls-30{opacity:.45}.cls-31{opacity:.4}.cls-32{opacity:.96}.cls-33{opacity:.86}</style></defs><g id="Layer_3" data-name="Layer 3"><path class="cls-1" d="m41.34 255.32 65.09 142.86c1.35 3 2.67 5.84 3.93 8.63a85 85 0 0 1 3.43 8.88h.89q1.65-4.69 3.36-8.88t3.87-8.63l65.21-142.86h13.45L121 425.2h-14.19L27.26 255.32ZM215.49 357.9q15.67-10.35 44.34-10.34l45.43.12v-11.8q0-14.72-9.33-22.07t-30.26-7.36q-20.3 0-30.32 6.53t-10 17.83V333h-16v-2.53q0-17.13 14.78-27.15t41.93-10q27.29 0 41.3 10.66t14 32.48v57.22a86.53 86.53 0 0 0 1.39 15.86 51.87 51.87 0 0 0 3.94 12.82v1.77h-15.47a38.18 38.18 0 0 1-3.62-9 62.28 62.28 0 0 1-2.09-12.43q-5.33 9.39-19.41 16.56t-35.78 7.17q-24.1 0-37.3-10t-13.2-28.87q0-19.31 15.67-29.66Zm9.39 48.78q8.94 6.72 28.61 6.72 20.68 0 36.22-10.27t15.55-23.73v-19.66H262.5q-23.1 0-34.83 6.85t-11.73 20.3q0 13.11 8.94 19.79ZM361.08 296.81H378l.63 21.82h.25a63.07 63.07 0 0 1 18.12-17.7q11.67-7.8 27.53-7.8a44.27 44.27 0 0 1 8.69.82 25.62 25.62 0 0 1 6.15 1.84v16.88a63.55 63.55 0 0 0-6.78-1.34 65.34 65.34 0 0 0-9.33-.57q-15.22 0-26.64 7.61a50.15 50.15 0 0 0-17.13 18.53v87.16h-18.4ZM462.65 245.29q4.11-4.44 11.86-4.44t12 4.44a15.8 15.8 0 0 1 4.12 11.17 15.34 15.34 0 0 1-4.12 11q-4.12 4.38-11.87 4.38t-11.92-4.38a15.23 15.23 0 0 1-4.19-11 15.81 15.81 0 0 1 4.12-11.17ZM461.82 296.81h25.63v127.26h-25.63zM531.73 355.68q16.24-10.53 46.69-10.41l40.47.13v-9q0-10.27-7-15.22t-23.1-4.95q-15.23 0-22.64 4.44t-7.43 12.43v1.9h-34v-2.42q0-18.51 17.51-29.3t48.47-10.79q31.34 0 47.38 11.17t16 34v57.09a76.19 76.19 0 0 0 1.46 15.17 39.73 39.73 0 0 0 4.25 12v2.15h-35.06a39 39 0 0 1-3.17-7.74 50.31 50.31 0 0 1-1.91-10.15q-4.93 7.88-18.52 13.9t-34.38 6q-24.11 0-37.68-10.21t-13.58-29.63q0-20.03 16.24-30.56Zm25.82 42.82q6.66 5 21.63 5 16 0 27.91-7.81t11.93-19v-11.5l-33.11-.13q-17.77 0-26.39 4.57t-8.63 14.21q0 9.65 6.66 14.66ZM687.66 255.7h40.09v56.46q7-8.25 18.91-13.45t28.8-5.2q29.68 0 47.45 17.82t17.76 47v3.43q0 29.57-18 47.38T775.33 427q-16.62 0-29.5-5.39T727.63 409h-.26l-.63 15.1h-39.08Zm53 136.39q9.33 5.58 23.28 5.58 18.15 0 26.9-9.32t8.75-25.57v-5.33q0-15.6-8.75-25.06t-27.41-9.45q-13.44 0-22.83 5.58T727.63 341v38.7q3.68 6.8 13 12.39ZM863.76 255.82h51.13v168.24h-51.13zM935.83 358.09q0-30.7 24.36-48.53t63.06-17.83q38.57 0 60.45 17.19t21.89 47.14v13.57H973.26v-20.17h74.09v-2.92a12.39 12.39 0 0 0-5.71-10.78q-5.7-3.93-19.16-3.94-13.69 0-20.55 5.33t-6.85 17.64v9.51q0 12.31 7.1 17.58t21.32 5.26q12 0 19.47-3.55a35.29 35.29 0 0 0 12.5-9.9l47.2 18.4q-7.49 17.9-27.28 26.9t-50.88 9q-40.72 0-64.7-17.64t-24-49ZM1136.55 404.9q3.29-3.67 9.64-3.68 6.09 0 9.39 3.68a12.86 12.86 0 0 1 3.3 8.88 12.61 12.61 0 0 1-3.3 8.82q-3.3 3.61-9.65 3.62-6.09 0-9.38-3.68a12.67 12.67 0 0 1-3.3-8.76 12.86 12.86 0 0 1 3.3-8.88Z"/><path d="M762.81 613.44q3.3-3.68 9.65-3.68 6.09 0 9.39 3.68a12.91 12.91 0 0 1 3.3 8.88 12.65 12.65 0 0 1-3.3 8.82q-3.3 3.61-9.65 3.62-6.09 0-9.39-3.68a12.66 12.66 0 0 1-3.29-8.76 12.85 12.85 0 0 1 3.29-8.88Z" style="fill:#4cb1f4"/><path class="cls-1" d="M879.25 463.86h121.8v14.33H896v62.93h93.25v14.21H896v77.27h-16.75ZM1014.25 567.26q0-29.43 19-47.45t51.38-18q32.35 0 51.45 18.08t19.1 47.39v3.3q0 29.57-19.1 47.58t-51.45 18q-32.34 0-51.38-18.08t-19-47.64Zm16.75 3.3q0 23.22 13.7 37.49t40 14.27q26.4 0 40-14.27t13.64-37.36v-3.3q0-23.22-13.57-37.43t-40.1-14.21q-26.39 0-40 14.21T1031 567.39ZM1185.66 505.35h15.22l.38 21.94h.26a66.62 66.62 0 0 1 22.2-17.88q13.58-7 31.09-7 23.34 0 36.47 12.3t13.13 38.95v78.94h-16.49v-78.66q0-19-9.77-28.1t-28.15-9.08q-16.49 0-28.8 7.87a59.18 59.18 0 0 0-19.2 19.16v88.81h-16.37ZM1323.06 505.35h88.06v13.44h-88.06Zm30.58 7.48v-45.55H1370v130.94q0 12.69 5.39 18.14t16.18 5.46a43.81 43.81 0 0 0 9.7-1 63.6 63.6 0 0 0 7.55-2.22l.64 13.7a50.28 50.28 0 0 1-8.63 2.54 63.64 63.64 0 0 1-13.07 1.14q-15.35 0-24.74-9t-9.39-28.42ZM1445 593.27v1.78q0 14.33 11.93 20.87t32.73 6.53q21.7 0 33.18-6.41t11.48-17.44q0-10.9-8.88-16.18t-38.19-9.58q-29.43-4.44-42.25-12.37t-12.81-23.28q0-15.86 15.09-25.63t41.37-9.77q27 0 42.25 10t15.21 28.21v2.67h-16.37v-2.16q0-12.56-10.27-18.71t-31.09-6.16q-20.18.14-30 5.58t-9.84 15q0 8.88 8.82 13.83t37.75 9.51q30.2 4.44 42.88 12.81t12.69 24.63q0 17.38-15.1 28.29T1490 636.15q-30.57 0-46-10.65t-15.42-29.82v-2.41ZM1586.59 613.44q3.29-3.68 9.64-3.68 6.09 0 9.39 3.68a12.86 12.86 0 0 1 3.3 8.88 12.61 12.61 0 0 1-3.3 8.82q-3.3 3.61-9.65 3.62-6.09 0-9.38-3.68a12.67 12.67 0 0 1-3.3-8.76 12.86 12.86 0 0 1 3.3-8.88ZM1450.86 178.56q3.3-3.69 9.64-3.68 6.09 0 9.39 3.68a12.82 12.82 0 0 1 3.3 8.88 12.62 12.62 0 0 1-3.3 8.82q-3.3 3.62-9.64 3.61-6.09 0-9.39-3.68a12.66 12.66 0 0 1-3.3-8.75 12.82 12.82 0 0 1 3.3-8.88ZM762.21 59.82h65.98v138.24h42.43V59.82h65.72V27.03H762.21v32.79z"/><path class="cls-1" d="M935.31 243.63a72.91 72.91 0 0 0 11.06 2.44 118.07 118.07 0 0 0 12.47.64c13.76 0 26-3.21 36.4-9.77s19.29-17.49 26.87-33.05l62.25-136.32h-38.2L1012.73 144a68.06 68.06 0 0 0-3.09 8.49c-.77 2.7-1.54 5.53-2.19 8.49h-.64c-.64-3-1.41-5.79-2.18-8.49s-1.93-5.4-3.22-8.36l-33.56-76.56h-40.26l59.93 128.09 2.44.25c-3.6 8.23-8.1 13.89-13.5 17.11s-12.22 4.63-20.32 4.63a71.93 71.93 0 0 1-10-.77q-5.6-1-10.41-1.93ZM1139.66 151.93v-39.86c2.44-4.63 6.94-8.75 13.37-12.48s14.15-5.4 23.15-5.4c12.47 0 21.6 3.09 27.52 9.26s8.74 14.66 8.74 25.46V135c0 11.19-3 19.8-8.87 26s-15.18 9.25-27.39 9.25c-9 0-16.72-1.92-23.15-5.65s-10.93-7.91-13.37-12.67Zm-40.51 91.95h40.76l.13-60.95q6 7.13 18.52 12c8.36 3.21 18.13 4.88 29.45 4.88 19.55 0 35.36-5.91 47.58-17.87s18.26-27.91 18.26-48.23v-3.34q0-30.68-18.13-48.23c-12.09-11.7-28.16-17.62-48.35-17.62-11.45 0-21.48 1.81-30 5.53s-14.53 8.36-18.26 13.64h-.38l-.52-16.08h-39.09ZM1271.34 133.54q0 30.87 21.61 49c14.4 12.09 34.2 18.13 59.54 18.13 18.13 0 33.18-2.83 44.88-8.61s20.06-13 25-22l-30.61-15.31a42.85 42.85 0 0 1-15.3 11.7c-6.3 3.09-14.53 4.63-24.44 4.63-13.5 0-23.66-3.21-30.22-9.51s-9.9-15.05-9.9-26.49v-8c0-10.41 3.22-18.9 9.52-25.2s15.94-9.39 28.68-9.39c12.21 0 21 2.19 26.36 6.69a21.65 21.65 0 0 1 8.1 17.49v1.8h-88.22v22.24h128.09V128c0-19.93-6.43-35.75-19.42-47.32s-31.25-17.36-54.66-17.36-42.56 6-57.1 18.26-21.86 28.42-21.86 48.61Z"/><path d="M25.29 545.05q0-43.26 27.15-64.2t70.79-20.94q40.86 0 63.89 15.36t26.32 46.18l.26 4.06h-42l-.13-4.44q-2.16-15.23-14-22.84T123 490.62q-24.74 0-39.52 12.62t-14.78 38v13.32q0 27 14.84 39t39.71 12q24.75 0 35.78-8.31a31.11 31.11 0 0 0 12.56-22.52l.38-3.94h41.87l-.25 4.45q-2.16 28.92-24.93 44.84T123.36 636q-44.28 0-71.18-20.87t-26.89-64.25Zm203.5 21.57q0-30.07 21.89-48t57.67-18q35.89 0 57.72 18t21.83 48v3.3q0 30.45-21.89 48.34t-57.66 17.89q-35.91 0-57.73-17.89t-21.83-48.34Zm41 5q0 16.48 10 25.81t28.61 9.33q18.64 0 28.54-9.33t9.9-25.69v-6.34q0-16.5-10-25.69t-28.42-9.2q-18.53 0-28.55 9.2t-10 25.69ZM412.89 464h40.6v168.34h-40.6Zm65.6 102.65q0-30.07 21.88-48t57.67-18q35.9 0 57.73 18t21.82 48v3.3q0 30.45-21.89 48.34T558 636.15q-35.91 0-57.73-17.89t-21.82-48.34Zm41 5q0 16.48 10 25.81t28.51 9.25q18.65 0 28.55-9.33t9.89-25.69v-6.34q0-16.5-10-25.69t-28.44-9.2q-18.52 0-28.55 9.2t-10 25.69Zm143-66.74h39.45l.39 21.06h.63a45.82 45.82 0 0 1 16.43-17.57 43.48 43.48 0 0 1 24-7.17 42.39 42.39 0 0 1 8.89.82 32.52 32.52 0 0 1 5.83 1.72v32.6a32.25 32.25 0 0 0-6.53-1.52 69.9 69.9 0 0 0-9.2-.51 43.15 43.15 0 0 0-23.22 6.54 42.59 42.59 0 0 0-15.73 16.43v75.11h-41Z" style="fill:url(#linear-gradient)"/><path class="cls-1" d="M293.53 245.85h-41.91V68.5h40.22l.5 15.43c3.91-5.1 9.9-9.45 17.84-12.94 8.42-3.7 18.58-5.58 30.18-5.58 41.34 0 67 25.44 67 66.38v3.34c0 20.42-6.2 36.77-18.42 48.61s-28.36 18-48 18c-16 0-36.49-4.2-47.34-15.87Zm-40.73-1.18h39.56l.13-61.93 1 1.23c10.31 12.26 31.3 16.63 47.51 16.63 19.29 0 35.14-6 47.14-17.7s18.07-27.68 18.07-47.77v-3.34c0-40.22-25.23-65.2-65.85-65.2-11.44 0-21.43 1.84-29.71 5.47s-14.24 8.12-18 13.43l-.17.24h-1.26l-.52-16.06h-37.9Zm76.38-72.45c-9 0-16.86-1.93-23.43-5.74s-11.1-8-13.59-12.83l-.06-.13V113.4l.07-.13c2.46-4.67 6.91-8.82 13.58-12.7 6.5-3.63 14.38-5.47 23.43-5.47 24.09 0 36.82 12.2 36.82 35.28v6c0 23.46-12.73 35.84-36.82 35.84Zm-35.91-19c2.4 4.59 6.67 8.59 13.07 12.22s14.07 5.56 22.84 5.56c23.32 0 35.65-12 35.65-34.62v-6c0-22.31-12.33-34.11-35.65-34.11-8.85 0-16.54 1.79-22.84 5.32-6.42 3.72-10.69 7.68-13.07 12.1Z"/><path class="cls-1" d="M248.93 241.98h6.56v6.56h-6.56zM248.93 65.8h6.56v6.56h-6.56zM287.99 65.8h6.56v6.56h-6.56zM288.5 81.87h6.56v6.56h-6.56z"/><path class="cls-1" d="M289.13 82.49h5.31v5.31h-5.31z"/><path class="cls-1" d="M288.89 81.87h6.56v6.56h-6.56z"/><circle class="cls-1" cx="310.42" cy="71.53" r="3.6"/><circle class="cls-1" cx="340.36" cy="66" r="3.6"/><path class="cls-1" d="M411.94 132.26h-10.29l5.15-8.91 5.14 8.91zM406.8 143.58l-5.15-8.92h10.29l-5.14 8.92z"/><circle class="cls-1" cx="388.55" cy="183.32" r="3.6"/><circle class="cls-1" cx="341" cy="201.18" r="3.6"/><path class="cls-1" d="M289.79 181.07h6.56v6.56h-6.56zM289.66 241.98h6.56v6.56h-6.56zM289.4 150.1h6.56v6.56h-6.56z"/><circle class="cls-1" cx="306.05" cy="165.97" r="3.6"/><circle class="cls-1" cx="329.18" cy="171.63" r="3.6"/><path class="cls-1" d="m365.42 144.86-5.15-8.91h10.29l-5.14 8.91zM370.56 132.1h-10.29l5.15-8.91 5.14 8.91z"/><circle class="cls-1" cx="329.18" cy="95.68" r="3.6"/><circle class="cls-1" cx="306.05" cy="101.08" r="3.6"/><path class="cls-1" d="M289.4 110.26h6.56v6.56h-6.56zM505.35 202.67c-25.29 0-45.44-6.14-59.87-18.26s-21.8-28.76-21.8-49.4v-3.35c0-20.22 7.42-36.72 22.06-49s33.83-18.38 57.43-18.38c46.71 0 74.6 24.38 74.6 65.22v13.31H465.7c1 8.23 4.08 14.74 9.35 19.8 6.45 6.21 16.48 9.35 29.79 9.35 17.72 0 30.56-5.27 39.25-16.1l.29-.37 31.56 15.78-.29.53c-4.91 9-13.38 16.51-25.19 22.22-11.63 5.73-26.81 8.65-45.11 8.65Zm-2.18-137.24c-23.31 0-42.38 6.09-56.68 18.11s-21.63 28.26-21.63 48.12V135c0 20.28 7.19 36.6 21.38 48.5s34.1 18 59.11 18c18.12 0 33.12-2.87 44.59-8.54 11.35-5.49 19.55-12.62 24.38-21.2l-29.61-14.81c-8.81 10.73-22.22 16.17-39.87 16.17-13.63 0-23.92-3.25-30.6-9.67-5.42-5.2-8.67-12.13-9.71-20.65h-15.92v-23.42h16.45c3.47-16.62 16.83-25.95 37.85-25.95 12.48 0 21.22 2.23 26.72 6.82a22.34 22.34 0 0 1 8.31 17.92v2.39H466a46.33 46.33 0 0 0-.66 8v8c0 1.75.07 3.44.23 5.06h111v-12.14c.03-40.11-27.42-64.05-73.4-64.05Zm-53.38 76.18h14.61a51.85 51.85 0 0 1-.24-5.06v-8a46.47 46.47 0 0 1 .67-8h-15Zm16.44-22.23h70.53v-1.21a21 21 0 0 0-7.88-17c-5.29-4.41-13.78-6.55-26-6.55-20.56-.02-33.29 8.7-36.65 24.76Z"/><path class="cls-1" d="m424.27 143.45-5.15-8.92h10.3ZM429.42 132.14h-10.3l5.15-8.92Z"/><circle class="cls-1" cx="446.11" cy="83.09" r="3.6"/><circle class="cls-1" cx="503.17" cy="64.84" r="3.6"/><path class="cls-1" d="M582.33 132.45H572l5.15-8.91ZM573.9 138.92h6.56v6.56h-6.56zM445.92 138.92h6.56v6.56h-6.56zM445.92 116.69h6.56v6.56h-6.56zM534.07 116.69h6.56v6.56h-6.56zM531.71 116.94l3.6-9.65 6.55 7.94-10.15 1.71z"/><circle class="cls-1" cx="529.25" cy="100.7" r="3.6"/><circle class="cls-1" cx="502.91" cy="94.01" r="3.6"/><path class="cls-1" d="M469.89 131.55H459.6l5.15-8.91Zm-8.12-1.25h6l-3-5.16Z"/><path class="cls-1" d="m464.75 123.89 4.06 7.04h-8.13l4.07-7.04M464.75 142.49l-5.15-8.92h10.29Zm-3-7.66 3 5.16 3-5.16Z"/><path class="cls-1" d="m464.75 141.24-4.07-7.04h8.13l-4.06 7.04"/><circle class="cls-1" cx="474.64" cy="163.02" r="3.6"/><circle class="cls-1" cx="504.84" cy="172.53" r="3.6"/><path class="cls-1" d="M541.26 152.93h6.56v6.56h-6.56zM571.85 168.22h6.56v6.56h-6.56z"/><circle class="cls-1" cx="550.2" cy="193.47" r="3.6"/><circle class="cls-1" cx="505.35" cy="202.08" r="3.6"/><circle class="cls-1" cx="445.86" cy="183.96" r="3.6"/><path class="cls-1" d="M745.08 198.81h-42.17v-75.37c0-17.75-8.26-26-26-26-14.54 0-27.91 7.84-34.11 20v81.4h-42.17V68.5h40.73l.61 18c4.51-6 10.93-11 19.12-15 8.74-4.29 18.91-6.5 30.33-6.5 16.23 0 29.37 4.46 39.08 13.26s14.58 23.18 14.58 42.84Zm-41-1.17h39.82v-76.51c0-19.31-4.78-33.43-14.2-42s-22.36-13-38.29-13c-11.2 0-21.23 2.14-29.81 6.37s-15.14 9.56-19.56 15.87l-.18.25h-1l-.65-19H601.8v128h39.82v-80.49l.06-.12c6.37-12.61 20.19-20.76 35.22-20.76 18.3 0 27.19 8.9 27.19 27.19Z"/><path class="cls-1" d="M597.93 194.94h6.56v6.56h-6.56zM597.93 65.8h6.56v6.56h-6.56zM637.51 65.8h6.56v6.56h-6.56zM638.15 84.82h6.56v6.56h-6.56z"/><path class="cls-1" d="M638.78 85.45h5.31v5.31h-5.31z"/><path class="cls-1" d="M638.28 84.82h6.56v6.56h-6.56z"/><circle class="cls-1" cx="661.35" cy="72.04" r="3.6"/><circle class="cls-1" cx="691.42" cy="65.61" r="3.6"/><circle class="cls-1" cx="730.1" cy="78.72" r="3.6"/><path class="cls-1" d="M749.64 124.1h-10.29l5.14-8.92 5.15 8.92zM741.21 194.94h6.56v6.56h-6.56zM700.22 194.94h6.56v6.56h-6.56zM708.65 126.41h-10.3l5.15-8.91 5.15 8.91z"/><circle class="cls-1" cx="676.9" cy="96.84" r="3.6"/><path class="cls-1" d="M638.93 113.99h6.56v6.56h-6.56zM638.93 194.94h6.56v6.56h-6.56zM124.86 202.54c-28.89 0-53.09-7.26-71.93-21.58s-28.37-36.43-28.37-65.74v-5.53c0-29 9.55-50.92 28.37-65.23S95.86 23 124.86 23s53.34 7.21 72.19 21.45 28.5 36.23 28.5 65.23v5.53c0 29.34-9.59 51.46-28.5 65.74s-43.25 21.59-72.19 21.59Zm0-178.36c-28.74 0-52.7 7.14-71.21 21.21s-27.92 35.72-27.92 64.3v5.53c0 28.92 9.4 50.73 27.92 64.81s42.58 21.34 71.21 21.34 52.73-7.18 71.48-21.34 28-35.86 28-64.81v-5.53c0-28.61-9.43-50.25-28-64.29s-42.69-21.22-71.48-21.22Zm.74 147.52h-.74c-17-.13-30.87-4.41-41.1-12.72-10.38-8.3-15.64-21.82-15.64-40.17v-12.46c0-18.09 5.26-31.48 15.64-39.78s24.16-12.35 41.11-12.21 30.95 4.15 41.48 12.33C176.73 74.87 182 88.21 182 106.35v12.46c0 18.34-5.3 31.9-15.77 40.3s-24.09 12.59-40.63 12.59Zm-1.51-116.17c-16.33 0-29.65 4-39.59 12-10.09 8.07-15.2 21.14-15.2 38.86v12.46c0 18 5.11 31.18 15.2 39.25s23.6 12.34 40.37 12.47c16.59.14 30.26-4 40.62-12.34s15.33-21.16 15.33-39.38v-12.5c0-17.76-5.12-30.79-15.2-38.73-10.31-8-24-12.08-40.76-12.08Z"/><path class="cls-1" d="M25.15 123.66 20 114.75h10.3l-5.15 8.91zM30.3 110.16H20l5.15-8.91 5.15 8.91z"/><circle class="cls-1" cx="53.29" cy="44.93" r="3.6"/><circle class="cls-1" cx="124.86" cy="23.6" r="3.6"/><circle class="cls-1" cx="196.7" cy="44.93" r="3.6"/><path class="cls-1" d="M230.11 110.16h-10.29l5.15-8.91 5.14 8.91zM224.97 123.66l-5.15-8.91h10.29l-5.14 8.91z"/><circle class="cls-1" cx="196.7" cy="180.49" r="3.6"/><circle class="cls-1" cx="124.86" cy="201.95" r="3.6"/><circle class="cls-1" cx="53.29" cy="180.49" r="3.6"/><path class="cls-1" d="m68.71 124.76-5.15-8.92h10.3l-5.15 8.92z"/><circle class="cls-1" cx="84.13" cy="158.52" r="3.6"/><circle class="cls-1" cx="124.86" cy="171.11" r="3.6"/><circle class="cls-1" cx="165.86" cy="158.65" r="3.6"/><path class="cls-1" d="m181.41 124.76-5.15-8.92h10.29l-5.14 8.92zM186.55 109.32h-10.29l5.15-8.91 5.14 8.91z"/><circle class="cls-1" cx="165.98" cy="67.16" r="3.6"/><path class="cls-1" d="M121.58 51.67h6.56v6.56h-6.56z"/><circle class="cls-1" cx="84.13" cy="67.03" r="3.6"/><path class="cls-1" d="M73.86 109.32h-10.3l5.15-8.91 5.15 8.91z"/></g><g id="Layer_4" data-name="Layer 4"><path class="cls-4" d="M1170.95 250.68h6.25v6.25h-6.25z"/><path class="cls-5" d="M1178.46 250.68h6.25v6.25h-6.25zM1185.96 250.68h6.25v6.25h-6.25zM1193.46 250.68h6.25v6.25h-6.25zM1200.97 250.68h6.25v6.25h-6.25z"/><path class="cls-6" d="M1208.47 250.68h6.25v6.25h-6.25z"/><path class="cls-4" d="M1291.01 250.68h6.25v6.25h-6.25z"/><path class="cls-5" d="M1298.51 250.68h6.25v6.25h-6.25zM1306.01 250.68h6.25v6.25h-6.25zM1313.51 250.68h6.25v6.25h-6.25zM1321.02 250.68h6.25v6.25h-6.25z"/><path class="cls-7" d="M1328.52 250.68h6.25v6.25h-6.25z"/><path class="cls-8" d="M1336.02 250.68h6.25v6.25h-6.25z"/><path class="cls-9" d="M1418.56 250.68h6.25v6.25h-6.25z"/><path class="cls-5" d="M1426.06 250.68h6.25v6.25h-6.25zM1433.57 250.68h6.25v6.25h-6.25zM1441.07 250.68h6.25v6.25h-6.25z"/><path class="cls-10" d="M1448.57 250.68h6.25v6.25h-6.25z"/><path class="cls-11" d="M1628.65 250.68h6.25v6.25h-6.25z"/><path class="cls-12" d="M1636.15 250.68h6.25v6.25h-6.25zM1643.66 250.68h6.25v6.25h-6.25zM1651.16 250.68h6.25v6.25h-6.25z"/><path class="cls-13" d="M1658.66 250.68h6.25v6.25h-6.25z"/><path class="cls-14" d="M1178.46 258.18h6.25v6.25h-6.25z"/><path class="cls-1" d="M1185.96 258.18h6.25v6.25h-6.25zM1193.46 258.18h6.25v6.25h-6.25zM1200.97 258.18h6.25v6.25h-6.25z"/><path class="cls-15" d="M1208.47 258.18h6.25v6.25h-6.25z"/><path class="cls-16" d="M1291.01 258.18h6.25v6.25h-6.25z"/><path class="cls-1" d="M1298.51 258.18h6.25v6.25h-6.25zM1306.01 258.18h6.25v6.25h-6.25zM1313.51 258.18h6.25v6.25h-6.25zM1321.02 258.18h6.25v6.25h-6.25zM1328.52 258.18h6.25v6.25h-6.25z"/><path class="cls-17" d="M1336.02 258.18h6.25v6.25h-6.25z"/><path class="cls-4" d="M1411.06 258.18h6.25v6.25h-6.25z"/><path class="cls-1" d="M1418.56 258.18h6.25v6.25h-6.25zM1426.06 258.18h6.25v6.25h-6.25zM1433.57 258.18h6.25v6.25h-6.25zM1441.07 258.18h6.25v6.25h-6.25z"/><path class="cls-4" d="M1448.57 258.18h6.25v6.25h-6.25z"/><path class="cls-18" d="M1628.65 258.18h6.25v6.25h-6.25z"/><path class="cls-1" d="M1636.15 258.18h6.25v6.25h-6.25zM1643.66 258.18h6.25v6.25h-6.25zM1651.16 258.18h6.25v6.25h-6.25z"/><path class="cls-14" d="M1658.66 258.18h6.25v6.25h-6.25z"/><path class="cls-19" d="M1178.46 265.69h6.25v6.25h-6.25z"/><path class="cls-1" d="M1185.96 265.69h6.25v6.25h-6.25zM1193.46 265.69h6.25v6.25h-6.25zM1200.97 265.69h6.25v6.25h-6.25zM1208.47 265.69h6.25v6.25h-6.25z"/><path class="cls-4" d="M1215.97 265.69h6.25v6.25h-6.25z"/><path class="cls-9" d="M1291.01 265.69h6.25v6.25h-6.25z"/><path class="cls-1" d="M1298.51 265.69h6.25v6.25h-6.25zM1306.01 265.69h6.25v6.25h-6.25zM1313.51 265.69h6.25v6.25h-6.25zM1321.02 265.69h6.25v6.25h-6.25zM1328.52 265.69h6.25v6.25h-6.25z"/><path class="cls-20" d="M1336.02 265.69h6.25v6.25h-6.25z"/><path class="cls-21" d="M1411.06 265.69h6.25v6.25h-6.25z"/><path class="cls-1" d="M1418.56 265.69h6.25v6.25h-6.25zM1426.06 265.69h6.25v6.25h-6.25zM1433.57 265.69h6.25v6.25h-6.25z"/><path class="cls-9" d="M1441.07 265.69h6.25v6.25h-6.25z"/><path class="cls-18" d="M1628.65 265.69h6.25v6.25h-6.25z"/><path class="cls-1" d="M1636.15 265.69h6.25v6.25h-6.25zM1643.66 265.69h6.25v6.25h-6.25zM1651.16 265.69h6.25v6.25h-6.25z"/><path class="cls-14" d="M1658.66 265.69h6.25v6.25h-6.25z"/><path class="cls-17" d="M1178.46 273.19h6.25v6.25h-6.25z"/><path class="cls-1" d="M1185.96 273.19h6.25v6.25h-6.25zM1193.46 273.19h6.25v6.25h-6.25zM1200.97 273.19h6.25v6.25h-6.25zM1208.47 273.19h6.25v6.25h-6.25z"/><path class="cls-10" d="M1215.97 273.19h6.25v6.25h-6.25z"/><path class="cls-4" d="M1283.5 273.19h6.25v6.25h-6.25z"/><path class="cls-1" d="M1291.01 273.19h6.25v6.25h-6.25zM1298.51 273.19h6.25v6.25h-6.25zM1306.01 273.19h6.25v6.25h-6.25zM1313.51 273.19h6.25v6.25h-6.25zM1321.02 273.19h6.25v6.25h-6.25zM1328.52 273.19h6.25v6.25h-6.25z"/><path class="cls-12" d="M1336.02 273.19h6.25v6.25h-6.25z"/><path class="cls-8" d="M1343.53 273.19h6.25v6.25h-6.25z"/><path class="cls-18" d="M1411.06 273.19h6.25v6.25h-6.25z"/><path class="cls-1" d="M1418.56 273.19h6.25v6.25h-6.25zM1426.06 273.19h6.25v6.25h-6.25zM1433.57 273.19h6.25v6.25h-6.25z"/><path class="cls-19" d="M1441.07 273.19h6.25v6.25h-6.25z"/><path class="cls-18" d="M1628.65 273.19h6.25v6.25h-6.25z"/><path class="cls-1" d="M1636.15 273.19h6.25v6.25h-6.25zM1643.66 273.19h6.25v6.25h-6.25zM1651.16 273.19h6.25v6.25h-6.25z"/><path class="cls-14" d="M1658.66 273.19h6.25v6.25h-6.25z"/><path class="cls-7" d="M1185.96 280.69h6.25v6.25h-6.25z"/><path class="cls-1" d="M1193.46 280.69h6.25v6.25h-6.25zM1200.97 280.69h6.25v6.25h-6.25zM1208.47 280.69h6.25v6.25h-6.25z"/><path class="cls-22" d="M1215.97 280.69h6.25v6.25h-6.25z"/><path class="cls-10" d="M1283.5 280.69h6.25v6.25h-6.25z"/><path class="cls-1" d="M1291.01 280.69h6.25v6.25h-6.25zM1298.51 280.69h6.25v6.25h-6.25zM1306.01 280.69h6.25v6.25h-6.25z"/><path class="cls-23" d="M1313.51 280.69h6.25v6.25h-6.25z"/><path class="cls-1" d="M1321.02 280.69h6.25v6.25h-6.25zM1328.52 280.69h6.25v6.25h-6.25zM1336.02 280.69h6.25v6.25h-6.25z"/><path class="cls-17" d="M1343.53 280.69h6.25v6.25h-6.25z"/><path class="cls-24" d="M1403.55 280.69h6.25v6.25h-6.25z"/><path class="cls-5" d="M1411.06 280.69h6.25v6.25h-6.25z"/><path class="cls-1" d="M1418.56 280.69h6.25v6.25h-6.25zM1426.06 280.69h6.25v6.25h-6.25zM1433.57 280.69h6.25v6.25h-6.25z"/><path class="cls-17" d="M1441.07 280.69h6.25v6.25h-6.25z"/><path class="cls-18" d="M1628.65 280.69h6.25v6.25h-6.25z"/><path class="cls-1" d="M1636.15 280.69h6.25v6.25h-6.25zM1643.66 280.69h6.25v6.25h-6.25zM1651.16 280.69h6.25v6.25h-6.25z"/><path class="cls-14" d="M1658.66 280.69h6.25v6.25h-6.25z"/><path class="cls-6" d="M1185.96 288.2h6.25v6.25h-6.25z"/><path class="cls-1" d="M1193.46 288.2h6.25v6.25h-6.25zM1200.97 288.2h6.25v6.25h-6.25zM1208.47 288.2h6.25v6.25h-6.25zM1215.97 288.2h6.25v6.25h-6.25z"/><path class="cls-25" d="M1223.48 288.2h6.25v6.25h-6.25z"/><path class="cls-13" d="M1283.5 288.2h6.25v6.25h-6.25z"/><path class="cls-1" d="M1291.01 288.2h6.25v6.25h-6.25zM1298.51 288.2h6.25v6.25h-6.25z"/><path class="cls-12" d="M1306.01 288.2h6.25v6.25h-6.25z"/><path class="cls-26" d="M1313.51 288.2h6.25v6.25h-6.25z"/><path class="cls-1" d="M1321.02 288.2h6.25v6.25h-6.25zM1328.52 288.2h6.25v6.25h-6.25zM1336.02 288.2h6.25v6.25h-6.25z"/><path class="cls-6" d="M1343.53 288.2h6.25v6.25h-6.25z"/><path class="cls-27" d="M1403.55 288.2h6.25v6.25h-6.25z"/><path class="cls-1" d="M1411.06 288.2h6.25v6.25h-6.25zM1418.56 288.2h6.25v6.25h-6.25zM1426.06 288.2h6.25v6.25h-6.25z"/><path class="cls-7" d="M1433.57 288.2h6.25v6.25h-6.25z"/><path class="cls-24" d="M1493.59 288.2h6.25v6.25h-6.25z"/><path class="cls-27" d="M1501.1 288.2h6.25v6.25h-6.25z"/><path class="cls-19" d="M1508.6 288.2h6.25v6.25h-6.25z"/><path class="cls-11" d="M1516.1 288.2h6.25v6.25h-6.25z"/><path class="cls-18" d="M1523.61 288.2h6.25v6.25h-6.25z"/><path class="cls-28" d="M1531.11 288.2h6.25v6.25h-6.25z"/><path class="cls-29" d="M1538.61 288.2h6.25v6.25h-6.25z"/><path class="cls-6" d="M1546.11 288.2h6.25v6.25h-6.25z"/><path class="cls-27" d="M1553.62 288.2h6.25v6.25h-6.25z"/><path class="cls-24" d="M1561.12 288.2h6.25v6.25h-6.25z"/><path class="cls-18" d="M1628.65 288.2h6.25v6.25h-6.25z"/><path class="cls-1" d="M1636.15 288.2h6.25v6.25h-6.25zM1643.66 288.2h6.25v6.25h-6.25zM1651.16 288.2h6.25v6.25h-6.25z"/><path class="cls-14" d="M1658.66 288.2h6.25v6.25h-6.25z"/><path class="cls-4" d="M1688.68 288.2h6.25v6.25h-6.25z"/><path class="cls-21" d="M1696.18 288.2h6.25v6.25h-6.25z"/><path class="cls-19" d="M1703.68 288.2h6.25v6.25h-6.25z"/><path class="cls-20" d="M1711.19 288.2h6.25v6.25h-6.25z"/><path class="cls-6" d="M1718.69 288.2h6.25v6.25h-6.25z"/><path class="cls-21" d="M1726.19 288.2h6.25v6.25h-6.25z"/><path class="cls-17" d="M1733.7 288.2h6.25v6.25h-6.25z"/><path class="cls-8" d="M1741.2 288.2h6.25v6.25h-6.25z"/><path class="cls-27" d="M1185.96 295.7h6.25v6.25h-6.25z"/><path class="cls-1" d="M1193.46 295.7h6.25v6.25h-6.25zM1200.97 295.7h6.25v6.25h-6.25zM1208.47 295.7h6.25v6.25h-6.25zM1215.97 295.7h6.25v6.25h-6.25z"/><path class="cls-30" d="M1223.48 295.7h6.25v6.25h-6.25z"/><path class="cls-25" d="M1276 295.7h6.25v6.25H1276z"/><path class="cls-1" d="M1283.5 295.7h6.25v6.25h-6.25zM1291.01 295.7h6.25v6.25h-6.25zM1298.51 295.7h6.25v6.25h-6.25z"/><path class="cls-11" d="M1306.01 295.7h6.25v6.25h-6.25z"/><path class="cls-31" d="M1313.51 295.7h6.25v6.25h-6.25z"/><path class="cls-1" d="M1321.02 295.7h6.25v6.25h-6.25zM1328.52 295.7h6.25v6.25h-6.25zM1336.02 295.7h6.25v6.25h-6.25z"/><path class="cls-7" d="M1343.53 295.7h6.25v6.25h-6.25z"/><path class="cls-8" d="M1351.03 295.7h6.25v6.25h-6.25z"/><path class="cls-26" d="M1403.55 295.7h6.25v6.25h-6.25z"/><path class="cls-1" d="M1411.06 295.7h6.25v6.25h-6.25zM1418.56 295.7h6.25v6.25h-6.25zM1426.06 295.7h6.25v6.25h-6.25z"/><path class="cls-6" d="M1433.57 295.7h6.25v6.25h-6.25z"/><path class="cls-24" d="M1478.59 295.7h6.25v6.25h-6.25z"/><path class="cls-6" d="M1486.09 295.7h6.25v6.25h-6.25z"/><path class="cls-23" d="M1493.59 295.7h6.25v6.25h-6.25z"/><path class="cls-1" d="M1501.1 295.7h6.25v6.25h-6.25zM1508.6 295.7h6.25v6.25h-6.25zM1516.1 295.7h6.25v6.25h-6.25zM1523.61 295.7h6.25v6.25h-6.25zM1531.11 295.7h6.25v6.25h-6.25zM1538.61 295.7h6.25v6.25h-6.25zM1546.11 295.7h6.25v6.25h-6.25zM1553.62 295.7h6.25v6.25h-6.25z"/><path class="cls-23" d="M1561.12 295.7h6.25v6.25h-6.25z"/><path class="cls-6" d="M1568.62 295.7h6.25v6.25h-6.25z"/><path class="cls-24" d="M1576.13 295.7h6.25v6.25h-6.25z"/><path class="cls-18" d="M1628.65 295.7h6.25v6.25h-6.25z"/><path class="cls-1" d="M1636.15 295.7h6.25v6.25h-6.25zM1643.66 295.7h6.25v6.25h-6.25zM1651.16 295.7h6.25v6.25h-6.25z"/><path class="cls-14" d="M1658.66 295.7h6.25v6.25h-6.25z"/><path class="cls-27" d="M1673.67 295.7h6.25v6.25h-6.25z"/><path class="cls-14" d="M1681.17 295.7h6.25v6.25h-6.25z"/><path class="cls-1" d="M1688.68 295.7h6.25v6.25h-6.25zM1696.18 295.7h6.25v6.25h-6.25zM1703.68 295.7h6.25v6.25h-6.25zM1711.19 295.7h6.25v6.25h-6.25zM1718.69 295.7h6.25v6.25h-6.25zM1726.19 295.7h6.25v6.25h-6.25zM1733.7 295.7h6.25v6.25h-6.25z"/><path class="cls-14" d="M1741.2 295.7h6.25v6.25h-6.25z"/><path class="cls-31" d="M1748.7 295.7h6.25v6.25h-6.25z"/><path class="cls-8" d="M1185.96 303.2h6.25v6.25h-6.25z"/><path class="cls-32" d="M1193.46 303.2h6.25v6.25h-6.25z"/><path class="cls-1" d="M1200.97 303.2h6.25v6.25h-6.25zM1208.47 303.2h6.25v6.25h-6.25zM1215.97 303.2h6.25v6.25h-6.25z"/><path class="cls-29" d="M1223.48 303.2h6.25v6.25h-6.25z"/><path class="cls-21" d="M1276 303.2h6.25v6.25H1276z"/><path class="cls-1" d="M1283.5 303.2h6.25v6.25h-6.25zM1291.01 303.2h6.25v6.25h-6.25zM1298.51 303.2h6.25v6.25h-6.25z"/><path class="cls-31" d="M1306.01 303.2h6.25v6.25h-6.25z"/><path class="cls-25" d="M1313.51 303.2h6.25v6.25h-6.25z"/><path class="cls-1" d="M1321.02 303.2h6.25v6.25h-6.25zM1328.52 303.2h6.25v6.25h-6.25zM1336.02 303.2h6.25v6.25h-6.25zM1343.53 303.2h6.25v6.25h-6.25z"/><path class="cls-17" d="M1351.03 303.2h6.25v6.25h-6.25z"/><path class="cls-8" d="M1396.05 303.2h6.25v6.25h-6.25z"/><path class="cls-12" d="M1403.55 303.2h6.25v6.25h-6.25z"/><path class="cls-1" d="M1411.06 303.2h6.25v6.25h-6.25zM1418.56 303.2h6.25v6.25h-6.25zM1426.06 303.2h6.25v6.25h-6.25z"/><path class="cls-17" d="M1433.57 303.2h6.25v6.25h-6.25zM1471.08 303.2h6.25v6.25h-6.25z"/><path class="cls-15" d="M1478.59 303.2h6.25v6.25h-6.25z"/><path class="cls-1" d="M1486.09 303.2h6.25v6.25h-6.25zM1493.59 303.2h6.25v6.25h-6.25zM1501.1 303.2h6.25v6.25h-6.25zM1508.6 303.2h6.25v6.25h-6.25zM1516.1 303.2h6.25v6.25h-6.25zM1523.61 303.2h6.25v6.25h-6.25zM1531.11 303.2h6.25v6.25h-6.25zM1538.61 303.2h6.25v6.25h-6.25zM1546.11 303.2h6.25v6.25h-6.25zM1553.62 303.2h6.25v6.25h-6.25zM1561.12 303.2h6.25v6.25h-6.25zM1568.62 303.2h6.25v6.25h-6.25z"/><path class="cls-9" d="M1576.13 303.2h6.25v6.25h-6.25z"/><path class="cls-4" d="M1583.63 303.2h6.25v6.25h-6.25z"/><path class="cls-18" d="M1628.65 303.2h6.25v6.25h-6.25z"/><path class="cls-1" d="M1636.15 303.2h6.25v6.25h-6.25zM1643.66 303.2h6.25v6.25h-6.25zM1651.16 303.2h6.25v6.25h-6.25z"/><path class="cls-14" d="M1658.66 303.2h6.25v6.25h-6.25z"/><path class="cls-6" d="M1666.17 303.2h6.25v6.25h-6.25z"/><path class="cls-1" d="M1673.67 303.2h6.25v6.25h-6.25zM1681.17 303.2h6.25v6.25h-6.25zM1688.68 303.2h6.25v6.25h-6.25zM1696.18 303.2h6.25v6.25h-6.25zM1703.68 303.2h6.25v6.25h-6.25zM1711.19 303.2h6.25v6.25h-6.25zM1718.69 303.2h6.25v6.25h-6.25zM1726.19 303.2h6.25v6.25h-6.25zM1733.7 303.2h6.25v6.25h-6.25zM1741.2 303.2h6.25v6.25h-6.25zM1748.7 303.2h6.25v6.25h-6.25z"/><path class="cls-26" d="M1756.21 303.2h6.25v6.25h-6.25z"/><path class="cls-8" d="M1763.71 303.2h6.25v6.25h-6.25z"/><path class="cls-26" d="M1193.46 310.71h6.25v6.25h-6.25z"/><path class="cls-1" d="M1200.97 310.71h6.25v6.25h-6.25zM1208.47 310.71h6.25v6.25h-6.25zM1215.97 310.71h6.25v6.25h-6.25z"/><path class="cls-23" d="M1223.48 310.71h6.25v6.25h-6.25z"/><path class="cls-24" d="M1230.98 310.71h6.25v6.25h-6.25z"/><path class="cls-28" d="M1276 310.71h6.25v6.25H1276z"/><path class="cls-1" d="M1283.5 310.71h6.25v6.25h-6.25zM1291.01 310.71h6.25v6.25h-6.25z"/><path class="cls-5" d="M1298.51 310.71h6.25v6.25h-6.25z"/><path class="cls-24" d="M1306.01 310.71h6.25v6.25h-6.25z"/><path class="cls-28" d="M1321.02 310.71h6.25v6.25h-6.25z"/><path class="cls-1" d="M1328.52 310.71h6.25v6.25h-6.25zM1336.02 310.71h6.25v6.25h-6.25zM1343.53 310.71h6.25v6.25h-6.25z"/><path class="cls-6" d="M1351.03 310.71h6.25v6.25h-6.25z"/><path class="cls-17" d="M1396.05 310.71h6.25v6.25h-6.25z"/><path class="cls-1" d="M1403.55 310.71h6.25v6.25h-6.25zM1411.06 310.71h6.25v6.25h-6.25zM1418.56 310.71h6.25v6.25h-6.25z"/><path class="cls-12" d="M1426.06 310.71h6.25v6.25h-6.25z"/><path class="cls-8" d="M1433.57 310.71h6.25v6.25h-6.25z"/><path class="cls-17" d="M1463.58 310.71h6.25v6.25h-6.25z"/><path class="cls-23" d="M1471.08 310.71h6.25v6.25h-6.25z"/><path class="cls-1" d="M1478.59 310.71h6.25v6.25h-6.25zM1486.09 310.71h6.25v6.25h-6.25zM1493.59 310.71h6.25v6.25h-6.25zM1501.1 310.71h6.25v6.25h-6.25z"/><path class="cls-5" d="M1508.6 310.71h6.25v6.25h-6.25z"/><path class="cls-33" d="M1516.1 310.71h6.25v6.25h-6.25z"/><path class="cls-29" d="M1523.61 310.71h6.25v6.25h-6.25z"/><path class="cls-11" d="M1531.11 310.71h6.25v6.25h-6.25z"/><path class="cls-22" d="M1538.61 310.71h6.25v6.25h-6.25z"/><path class="cls-32" d="M1546.11 310.71h6.25v6.25h-6.25z"/><path class="cls-1" d="M1553.62 310.71h6.25v6.25h-6.25zM1561.12 310.71h6.25v6.25h-6.25zM1568.62 310.71h6.25v6.25h-6.25zM1576.13 310.71h6.25v6.25h-6.25z"/><path class="cls-14" d="M1583.63 310.71h6.25v6.25h-6.25z"/><path class="cls-24" d="M1591.13 310.71h6.25v6.25h-6.25z"/><path class="cls-18" d="M1628.65 310.71h6.25v6.25h-6.25z"/><path class="cls-1" d="M1636.15 310.71h6.25v6.25h-6.25zM1643.66 310.71h6.25v6.25h-6.25zM1651.16 310.71h6.25v6.25h-6.25zM1658.66 310.71h6.25v6.25h-6.25zM1666.17 310.71h6.25v6.25h-6.25zM1673.67 310.71h6.25v6.25h-6.25zM1681.17 310.71h6.25v6.25h-6.25zM1688.68 310.71h6.25v6.25h-6.25z"/><path class="cls-7" d="M1696.18 310.71h6.25v6.25h-6.25z"/><path class="cls-14" d="M1703.68 310.71h6.25v6.25h-6.25z"/><path class="cls-1" d="M1711.19 310.71h6.25v6.25h-6.25zM1718.69 310.71h6.25v6.25h-6.25zM1726.19 310.71h6.25v6.25h-6.25zM1733.7 310.71h6.25v6.25h-6.25zM1741.2 310.71h6.25v6.25h-6.25zM1748.7 310.71h6.25v6.25h-6.25zM1756.21 310.71h6.25v6.25h-6.25z"/><path class="cls-20" d="M1763.71 310.71h6.25v6.25h-6.25z"/><path class="cls-27" d="M1193.46 318.21h6.25v6.25h-6.25z"/><path class="cls-1" d="M1200.97 318.21h6.25v6.25h-6.25zM1208.47 318.21h6.25v6.25h-6.25zM1215.97 318.21h6.25v6.25h-6.25zM1223.48 318.21h6.25v6.25h-6.25z"/><path class="cls-27" d="M1230.98 318.21h6.25v6.25h-6.25z"/><path class="cls-25" d="M1268.5 318.21h6.25v6.25h-6.25z"/><path class="cls-1" d="M1276 318.21h6.25v6.25H1276zM1283.5 318.21h6.25v6.25h-6.25zM1291.01 318.21h6.25v6.25h-6.25z"/><path class="cls-29" d="M1298.51 318.21h6.25v6.25h-6.25z"/><path class="cls-30" d="M1321.02 318.21h6.25v6.25h-6.25z"/><path class="cls-1" d="M1328.52 318.21h6.25v6.25h-6.25zM1336.02 318.21h6.25v6.25h-6.25zM1343.53 318.21h6.25v6.25h-6.25z"/><path class="cls-15" d="M1351.03 318.21h6.25v6.25h-6.25z"/><path class="cls-16" d="M1396.05 318.21h6.25v6.25h-6.25z"/><path class="cls-1" d="M1403.55 318.21h6.25v6.25h-6.25zM1411.06 318.21h6.25v6.25h-6.25zM1418.56 318.21h6.25v6.25h-6.25z"/><path class="cls-26" d="M1426.06 318.21h6.25v6.25h-6.25z"/><path class="cls-24" d="M1456.08 318.21h6.25v6.25h-6.25z"/><path class="cls-7" d="M1463.58 318.21h6.25v6.25h-6.25z"/><path class="cls-1" d="M1471.08 318.21h6.25v6.25h-6.25zM1478.59 318.21h6.25v6.25h-6.25zM1486.09 318.21h6.25v6.25h-6.25zM1493.59 318.21h6.25v6.25h-6.25z"/><path class="cls-20" d="M1501.1 318.21h6.25v6.25h-6.25z"/><path class="cls-24" d="M1508.6 318.21h6.25v6.25h-6.25zM1546.11 318.21h6.25v6.25h-6.25z"/><path class="cls-10" d="M1553.62 318.21h6.25v6.25h-6.25z"/><path class="cls-5" d="M1561.12 318.21h6.25v6.25h-6.25z"/><path class="cls-1" d="M1568.62 318.21h6.25v6.25h-6.25zM1576.13 318.21h6.25v6.25h-6.25zM1583.63 318.21h6.25v6.25h-6.25z"/><path class="cls-20" d="M1591.13 318.21h6.25v6.25h-6.25z"/><path class="cls-18" d="M1628.65 318.21h6.25v6.25h-6.25z"/><path class="cls-1" d="M1636.15 318.21h6.25v6.25h-6.25zM1643.66 318.21h6.25v6.25h-6.25zM1651.16 318.21h6.25v6.25h-6.25zM1658.66 318.21h6.25v6.25h-6.25zM1666.17 318.21h6.25v6.25h-6.25z"/><path class="cls-9" d="M1673.67 318.21h6.25v6.25h-6.25z"/><path class="cls-31" d="M1681.17 318.21h6.25v6.25h-6.25z"/><path class="cls-24" d="M1688.68 318.21h6.25v6.25h-6.25z"/><path class="cls-8" d="M1711.19 318.21h6.25v6.25h-6.25z"/><path class="cls-4" d="M1718.69 318.21h6.25v6.25h-6.25z"/><path class="cls-29" d="M1726.19 318.21h6.25v6.25h-6.25z"/><path class="cls-1" d="M1733.7 318.21h6.25v6.25h-6.25zM1741.2 318.21h6.25v6.25h-6.25zM1748.7 318.21h6.25v6.25h-6.25zM1756.21 318.21h6.25v6.25h-6.25zM1763.71 318.21h6.25v6.25h-6.25z"/><path class="cls-27" d="M1771.21 318.21h6.25v6.25h-6.25z"/><path class="cls-24" d="M1193.46 325.71h6.25v6.25h-6.25z"/><path class="cls-23" d="M1200.97 325.71h6.25v6.25h-6.25z"/><path class="cls-1" d="M1208.47 325.71h6.25v6.25h-6.25zM1215.97 325.71h6.25v6.25h-6.25zM1223.48 325.71h6.25v6.25h-6.25z"/><path class="cls-20" d="M1230.98 325.71h6.25v6.25h-6.25z"/><path class="cls-30" d="M1268.5 325.71h6.25v6.25h-6.25z"/><path class="cls-1" d="M1276 325.71h6.25v6.25H1276zM1283.5 325.71h6.25v6.25h-6.25zM1291.01 325.71h6.25v6.25h-6.25z"/><path class="cls-31" d="M1298.51 325.71h6.25v6.25h-6.25z"/><path class="cls-25" d="M1321.02 325.71h6.25v6.25h-6.25z"/><path class="cls-1" d="M1328.52 325.71h6.25v6.25h-6.25zM1336.02 325.71h6.25v6.25h-6.25zM1343.53 325.71h6.25v6.25h-6.25zM1351.03 325.71h6.25v6.25h-6.25z"/><path class="cls-17" d="M1358.53 325.71h6.25v6.25h-6.25z"/><path class="cls-13" d="M1396.05 325.71h6.25v6.25h-6.25z"/><path class="cls-1" d="M1403.55 325.71h6.25v6.25h-6.25zM1411.06 325.71h6.25v6.25h-6.25zM1418.56 325.71h6.25v6.25h-6.25z"/><path class="cls-27" d="M1426.06 325.71h6.25v6.25h-6.25z"/><path class="cls-16" d="M1456.08 325.71h6.25v6.25h-6.25z"/><path class="cls-1" d="M1463.58 325.71h6.25v6.25h-6.25zM1471.08 325.71h6.25v6.25h-6.25zM1478.59 325.71h6.25v6.25h-6.25zM1486.09 325.71h6.25v6.25h-6.25z"/><path class="cls-30" d="M1493.59 325.71h6.25v6.25h-6.25z"/><path class="cls-10" d="M1561.12 325.71h6.25v6.25h-6.25z"/><path class="cls-1" d="M1568.62 325.71h6.25v6.25h-6.25zM1576.13 325.71h6.25v6.25h-6.25zM1583.63 325.71h6.25v6.25h-6.25z"/><path class="cls-5" d="M1591.13 325.71h6.25v6.25h-6.25z"/><path class="cls-25" d="M1598.64 325.71h6.25v6.25h-6.25z"/><path class="cls-18" d="M1628.65 325.71h6.25v6.25h-6.25z"/><path class="cls-1" d="M1636.15 325.71h6.25v6.25h-6.25zM1643.66 325.71h6.25v6.25h-6.25zM1651.16 325.71h6.25v6.25h-6.25zM1658.66 325.71h6.25v6.25h-6.25z"/><path class="cls-29" d="M1666.17 325.71h6.25v6.25h-6.25z"/><path class="cls-24" d="M1673.67 325.71h6.25v6.25h-6.25z"/><path class="cls-10" d="M1733.7 325.71h6.25v6.25h-6.25z"/><path class="cls-1" d="M1741.2 325.71h6.25v6.25h-6.25zM1748.7 325.71h6.25v6.25h-6.25zM1756.21 325.71h6.25v6.25h-6.25zM1763.71 325.71h6.25v6.25h-6.25z"/><path class="cls-22" d="M1771.21 325.71h6.25v6.25h-6.25z"/><path class="cls-29" d="M1200.97 333.22h6.25v6.25h-6.25z"/><path class="cls-1" d="M1208.47 333.22h6.25v6.25h-6.25zM1215.97 333.22h6.25v6.25h-6.25zM1223.48 333.22h6.25v6.25h-6.25z"/><path class="cls-7" d="M1230.98 333.22h6.25v6.25h-6.25z"/><path class="cls-18" d="M1268.5 333.22h6.25v6.25h-6.25z"/><path class="cls-1" d="M1276 333.22h6.25v6.25H1276zM1283.5 333.22h6.25v6.25h-6.25z"/><path class="cls-5" d="M1291.01 333.22h6.25v6.25h-6.25z"/><path class="cls-24" d="M1298.51 333.22h6.25v6.25h-6.25z"/><path class="cls-28" d="M1328.52 333.22h6.25v6.25h-6.25z"/><path class="cls-1" d="M1336.02 333.22h6.25v6.25h-6.25zM1343.53 333.22h6.25v6.25h-6.25zM1351.03 333.22h6.25v6.25h-6.25z"/><path class="cls-19" d="M1358.53 333.22h6.25v6.25h-6.25z"/><path class="cls-25" d="M1388.55 333.22h6.25v6.25h-6.25z"/><path class="cls-1" d="M1396.05 333.22h6.25v6.25h-6.25zM1403.55 333.22h6.25v6.25h-6.25zM1411.06 333.22h6.25v6.25h-6.25z"/><path class="cls-23" d="M1418.56 333.22h6.25v6.25h-6.25z"/><path class="cls-24" d="M1426.06 333.22h6.25v6.25h-6.25z"/><path class="cls-14" d="M1456.08 333.22h6.25v6.25h-6.25z"/><path class="cls-1" d="M1463.58 333.22h6.25v6.25h-6.25zM1471.08 333.22h6.25v6.25h-6.25zM1478.59 333.22h6.25v6.25h-6.25z"/><path class="cls-28" d="M1486.09 333.22h6.25v6.25h-6.25z"/><path class="cls-8" d="M1561.12 333.22h6.25v6.25h-6.25z"/><path class="cls-23" d="M1568.62 333.22h6.25v6.25h-6.25z"/><path class="cls-1" d="M1576.13 333.22h6.25v6.25h-6.25zM1583.63 333.22h6.25v6.25h-6.25zM1591.13 333.22h6.25v6.25h-6.25z"/><path class="cls-31" d="M1598.64 333.22h6.25v6.25h-6.25z"/><path class="cls-18" d="M1628.65 333.22h6.25v6.25h-6.25z"/><path class="cls-1" d="M1636.15 333.22h6.25v6.25h-6.25zM1643.66 333.22h6.25v6.25h-6.25zM1651.16 333.22h6.25v6.25h-6.25z"/><path class="cls-12" d="M1658.66 333.22h6.25v6.25h-6.25z"/><path class="cls-8" d="M1666.17 333.22h6.25v6.25h-6.25zM1733.7 333.22h6.25v6.25h-6.25z"/><path class="cls-33" d="M1741.2 333.22h6.25v6.25h-6.25z"/><path class="cls-1" d="M1748.7 333.22h6.25v6.25h-6.25zM1756.21 333.22h6.25v6.25h-6.25zM1763.71 333.22h6.25v6.25h-6.25zM1771.21 333.22h6.25v6.25h-6.25z"/><path class="cls-25" d="M1778.72 333.22h6.25v6.25h-6.25z"/><path class="cls-31" d="M1200.97 340.72h6.25v6.25h-6.25z"/><path class="cls-1" d="M1208.47 340.72h6.25v6.25h-6.25zM1215.97 340.72h6.25v6.25h-6.25zM1223.48 340.72h6.25v6.25h-6.25zM1230.98 340.72h6.25v6.25h-6.25z"/><path class="cls-17" d="M1238.48 340.72h6.25v6.25h-6.25z"/><path class="cls-24" d="M1260.99 340.72h6.25v6.25h-6.25z"/><path class="cls-5" d="M1268.5 340.72h6.25v6.25h-6.25z"/><path class="cls-1" d="M1276 340.72h6.25v6.25H1276zM1283.5 340.72h6.25v6.25h-6.25z"/><path class="cls-18" d="M1291.01 340.72h6.25v6.25h-6.25z"/><path class="cls-30" d="M1328.52 340.72h6.25v6.25h-6.25z"/><path class="cls-1" d="M1336.02 340.72h6.25v6.25h-6.25zM1343.53 340.72h6.25v6.25h-6.25zM1351.03 340.72h6.25v6.25h-6.25z"/><path class="cls-15" d="M1358.53 340.72h6.25v6.25h-6.25z"/><path class="cls-31" d="M1388.55 340.72h6.25v6.25h-6.25z"/><path class="cls-1" d="M1396.05 340.72h6.25v6.25h-6.25zM1403.55 340.72h6.25v6.25h-6.25zM1411.06 340.72h6.25v6.25h-6.25z"/><path class="cls-11" d="M1418.56 340.72h6.25v6.25h-6.25z"/><path class="cls-25" d="M1448.57 340.72h6.25v6.25h-6.25z"/><path class="cls-1" d="M1456.08 340.72h6.25v6.25h-6.25zM1463.58 340.72h6.25v6.25h-6.25zM1471.08 340.72h6.25v6.25h-6.25zM1478.59 340.72h6.25v6.25h-6.25z"/><path class="cls-6" d="M1486.09 340.72h6.25v6.25h-6.25z"/><path class="cls-17" d="M1493.59 340.72h6.25v6.25h-6.25zM1501.1 340.72h6.25v6.25h-6.25zM1508.6 340.72h6.25v6.25h-6.25zM1516.1 340.72h6.25v6.25h-6.25zM1523.61 340.72h6.25v6.25h-6.25zM1531.11 340.72h6.25v6.25h-6.25zM1538.61 340.72h6.25v6.25h-6.25zM1546.11 340.72h6.25v6.25h-6.25zM1553.62 340.72h6.25v6.25h-6.25zM1561.12 340.72h6.25v6.25h-6.25z"/><path class="cls-15" d="M1568.62 340.72h6.25v6.25h-6.25z"/><path class="cls-1" d="M1576.13 340.72h6.25v6.25h-6.25zM1583.63 340.72h6.25v6.25h-6.25zM1591.13 340.72h6.25v6.25h-6.25z"/><path class="cls-6" d="M1598.64 340.72h6.25v6.25h-6.25z"/><path class="cls-18" d="M1628.65 340.72h6.25v6.25h-6.25z"/><path class="cls-1" d="M1636.15 340.72h6.25v6.25h-6.25zM1643.66 340.72h6.25v6.25h-6.25zM1651.16 340.72h6.25v6.25h-6.25z"/><path class="cls-14" d="M1658.66 340.72h6.25v6.25h-6.25z"/><path class="cls-10" d="M1741.2 340.72h6.25v6.25h-6.25z"/><path class="cls-1" d="M1748.7 340.72h6.25v6.25h-6.25zM1756.21 340.72h6.25v6.25h-6.25zM1763.71 340.72h6.25v6.25h-6.25zM1771.21 340.72h6.25v6.25h-6.25z"/><path class="cls-27" d="M1778.72 340.72h6.25v6.25h-6.25z"/><path class="cls-24" d="M1200.97 348.22h6.25v6.25h-6.25z"/><path class="cls-1" d="M1208.47 348.22h6.25v6.25h-6.25zM1215.97 348.22h6.25v6.25h-6.25zM1223.48 348.22h6.25v6.25h-6.25zM1230.98 348.22h6.25v6.25h-6.25z"/><path class="cls-16" d="M1238.48 348.22h6.25v6.25h-6.25z"/><path class="cls-31" d="M1260.99 348.22h6.25v6.25h-6.25z"/><path class="cls-1" d="M1268.5 348.22h6.25v6.25h-6.25zM1276 348.22h6.25v6.25H1276zM1283.5 348.22h6.25v6.25h-6.25z"/><path class="cls-30" d="M1291.01 348.22h6.25v6.25h-6.25z"/><path class="cls-25" d="M1328.52 348.22h6.25v6.25h-6.25z"/><path class="cls-1" d="M1336.02 348.22h6.25v6.25h-6.25zM1343.53 348.22h6.25v6.25h-6.25zM1351.03 348.22h6.25v6.25h-6.25zM1358.53 348.22h6.25v6.25h-6.25z"/><path class="cls-17" d="M1366.04 348.22h6.25v6.25h-6.25z"/><path class="cls-11" d="M1388.55 348.22h6.25v6.25h-6.25z"/><path class="cls-1" d="M1396.05 348.22h6.25v6.25h-6.25zM1403.55 348.22h6.25v6.25h-6.25zM1411.06 348.22h6.25v6.25h-6.25z"/><path class="cls-31" d="M1418.56 348.22h6.25v6.25h-6.25z"/><path class="cls-17" d="M1448.57 348.22h6.25v6.25h-6.25z"/><path class="cls-1" d="M1456.08 348.22h6.25v6.25h-6.25zM1463.58 348.22h6.25v6.25h-6.25zM1471.08 348.22h6.25v6.25h-6.25zM1478.59 348.22h6.25v6.25h-6.25zM1486.09 348.22h6.25v6.25h-6.25zM1493.59 348.22h6.25v6.25h-6.25zM1501.1 348.22h6.25v6.25h-6.25zM1508.6 348.22h6.25v6.25h-6.25zM1516.1 348.22h6.25v6.25h-6.25zM1523.61 348.22h6.25v6.25h-6.25zM1531.11 348.22h6.25v6.25h-6.25zM1538.61 348.22h6.25v6.25h-6.25zM1546.11 348.22h6.25v6.25h-6.25zM1553.62 348.22h6.25v6.25h-6.25zM1561.12 348.22h6.25v6.25h-6.25zM1568.62 348.22h6.25v6.25h-6.25zM1576.13 348.22h6.25v6.25h-6.25zM1583.63 348.22h6.25v6.25h-6.25zM1591.13 348.22h6.25v6.25h-6.25z"/><path class="cls-26" d="M1598.64 348.22h6.25v6.25h-6.25z"/><path class="cls-18" d="M1628.65 348.22h6.25v6.25h-6.25z"/><path class="cls-1" d="M1636.15 348.22h6.25v6.25h-6.25zM1643.66 348.22h6.25v6.25h-6.25zM1651.16 348.22h6.25v6.25h-6.25z"/><path class="cls-14" d="M1658.66 348.22h6.25v6.25h-6.25z"/><path class="cls-27" d="M1741.2 348.22h6.25v6.25h-6.25z"/><path class="cls-1" d="M1748.7 348.22h6.25v6.25h-6.25zM1756.21 348.22h6.25v6.25h-6.25zM1763.71 348.22h6.25v6.25h-6.25zM1771.21 348.22h6.25v6.25h-6.25z"/><path class="cls-30" d="M1778.72 348.22h6.25v6.25h-6.25z"/><path class="cls-18" d="M1208.47 355.73h6.25v6.25h-6.25z"/><path class="cls-1" d="M1215.97 355.73h6.25v6.25h-6.25zM1223.48 355.73h6.25v6.25h-6.25zM1230.98 355.73h6.25v6.25h-6.25z"/><path class="cls-33" d="M1238.48 355.73h6.25v6.25h-6.25z"/><path class="cls-29" d="M1260.99 355.73h6.25v6.25h-6.25z"/><path class="cls-1" d="M1268.5 355.73h6.25v6.25h-6.25zM1276 355.73h6.25v6.25H1276zM1283.5 355.73h6.25v6.25h-6.25z"/><path class="cls-25" d="M1291.01 355.73h6.25v6.25h-6.25z"/><path class="cls-28" d="M1336.02 355.73h6.25v6.25h-6.25z"/><path class="cls-1" d="M1343.53 355.73h6.25v6.25h-6.25zM1351.03 355.73h6.25v6.25h-6.25zM1358.53 355.73h6.25v6.25h-6.25z"/><path class="cls-19" d="M1366.04 355.73h6.25v6.25h-6.25z"/><path class="cls-8" d="M1381.04 355.73h6.25v6.25h-6.25z"/><path class="cls-23" d="M1388.55 355.73h6.25v6.25h-6.25z"/><path class="cls-1" d="M1396.05 355.73h6.25v6.25h-6.25zM1403.55 355.73h6.25v6.25h-6.25z"/><path class="cls-5" d="M1411.06 355.73h6.25v6.25h-6.25z"/><path class="cls-24" d="M1418.56 355.73h6.25v6.25h-6.25z"/><path class="cls-27" d="M1448.57 355.73h6.25v6.25h-6.25z"/><path class="cls-1" d="M1456.08 355.73h6.25v6.25h-6.25zM1463.58 355.73h6.25v6.25h-6.25zM1471.08 355.73h6.25v6.25h-6.25zM1478.59 355.73h6.25v6.25h-6.25zM1486.09 355.73h6.25v6.25h-6.25zM1493.59 355.73h6.25v6.25h-6.25zM1501.1 355.73h6.25v6.25h-6.25zM1508.6 355.73h6.25v6.25h-6.25zM1516.1 355.73h6.25v6.25h-6.25zM1523.61 355.73h6.25v6.25h-6.25zM1531.11 355.73h6.25v6.25h-6.25zM1538.61 355.73h6.25v6.25h-6.25zM1546.11 355.73h6.25v6.25h-6.25zM1553.62 355.73h6.25v6.25h-6.25zM1561.12 355.73h6.25v6.25h-6.25zM1568.62 355.73h6.25v6.25h-6.25zM1576.13 355.73h6.25v6.25h-6.25zM1583.63 355.73h6.25v6.25h-6.25zM1591.13 355.73h6.25v6.25h-6.25z"/><path class="cls-29" d="M1598.64 355.73h6.25v6.25h-6.25z"/><path class="cls-18" d="M1628.65 355.73h6.25v6.25h-6.25z"/><path class="cls-1" d="M1636.15 355.73h6.25v6.25h-6.25zM1643.66 355.73h6.25v6.25h-6.25zM1651.16 355.73h6.25v6.25h-6.25z"/><path class="cls-14" d="M1658.66 355.73h6.25v6.25h-6.25z"/><path class="cls-17" d="M1741.2 355.73h6.25v6.25h-6.25z"/><path class="cls-1" d="M1748.7 355.73h6.25v6.25h-6.25zM1756.21 355.73h6.25v6.25h-6.25zM1763.71 355.73h6.25v6.25h-6.25zM1771.21 355.73h6.25v6.25h-6.25z"/><path class="cls-10" d="M1778.72 355.73h6.25v6.25h-6.25z"/><path class="cls-30" d="M1208.47 363.23h6.25v6.25h-6.25z"/><path class="cls-1" d="M1215.97 363.23h6.25v6.25h-6.25zM1223.48 363.23h6.25v6.25h-6.25zM1230.98 363.23h6.25v6.25h-6.25zM1238.48 363.23h6.25v6.25h-6.25z"/><path class="cls-25" d="M1245.99 363.23h6.25v6.25h-6.25z"/><path class="cls-24" d="M1253.49 363.23h6.25v6.25h-6.25z"/><path class="cls-23" d="M1260.99 363.23h6.25v6.25h-6.25z"/><path class="cls-1" d="M1268.5 363.23h6.25v6.25h-6.25zM1276 363.23h6.25v6.25H1276z"/><path class="cls-28" d="M1283.5 363.23h6.25v6.25h-6.25z"/><path class="cls-21" d="M1336.02 363.23h6.25v6.25h-6.25z"/><path class="cls-1" d="M1343.53 363.23h6.25v6.25h-6.25zM1351.03 363.23h6.25v6.25h-6.25zM1358.53 363.23h6.25v6.25h-6.25z"/><path class="cls-14" d="M1366.04 363.23h6.25v6.25h-6.25z"/><path class="cls-17" d="M1381.04 363.23h6.25v6.25h-6.25z"/><path class="cls-1" d="M1388.55 363.23h6.25v6.25h-6.25zM1396.05 363.23h6.25v6.25h-6.25zM1403.55 363.23h6.25v6.25h-6.25z"/><path class="cls-18" d="M1411.06 363.23h6.25v6.25h-6.25z"/><path class="cls-17" d="M1448.57 363.23h6.25v6.25h-6.25z"/><path class="cls-1" d="M1456.08 363.23h6.25v6.25h-6.25zM1463.58 363.23h6.25v6.25h-6.25zM1471.08 363.23h6.25v6.25h-6.25zM1478.59 363.23h6.25v6.25h-6.25z"/><path class="cls-11" d="M1486.09 363.23h6.25v6.25h-6.25z"/><path class="cls-16" d="M1493.59 363.23h6.25v6.25h-6.25zM1501.1 363.23h6.25v6.25h-6.25zM1508.6 363.23h6.25v6.25h-6.25zM1516.1 363.23h6.25v6.25h-6.25zM1523.61 363.23h6.25v6.25h-6.25zM1531.11 363.23h6.25v6.25h-6.25zM1538.61 363.23h6.25v6.25h-6.25zM1546.11 363.23h6.25v6.25h-6.25zM1553.62 363.23h6.25v6.25h-6.25zM1561.12 363.23h6.25v6.25h-6.25zM1568.62 363.23h6.25v6.25h-6.25zM1576.13 363.23h6.25v6.25h-6.25zM1583.63 363.23h6.25v6.25h-6.25zM1591.13 363.23h6.25v6.25h-6.25z"/><path class="cls-31" d="M1598.64 363.23h6.25v6.25h-6.25z"/><path class="cls-18" d="M1628.65 363.23h6.25v6.25h-6.25z"/><path class="cls-1" d="M1636.15 363.23h6.25v6.25h-6.25zM1643.66 363.23h6.25v6.25h-6.25zM1651.16 363.23h6.25v6.25h-6.25z"/><path class="cls-14" d="M1658.66 363.23h6.25v6.25h-6.25z"/><path class="cls-27" d="M1741.2 363.23h6.25v6.25h-6.25z"/><path class="cls-1" d="M1748.7 363.23h6.25v6.25h-6.25zM1756.21 363.23h6.25v6.25h-6.25zM1763.71 363.23h6.25v6.25h-6.25zM1771.21 363.23h6.25v6.25h-6.25z"/><path class="cls-30" d="M1778.72 363.23h6.25v6.25h-6.25z"/><path class="cls-25" d="M1208.47 370.73h6.25v6.25h-6.25z"/><path class="cls-1" d="M1215.97 370.73h6.25v6.25h-6.25zM1223.48 370.73h6.25v6.25h-6.25zM1230.98 370.73h6.25v6.25h-6.25zM1238.48 370.73h6.25v6.25h-6.25z"/><path class="cls-30" d="M1245.99 370.73h6.25v6.25h-6.25z"/><path class="cls-27" d="M1253.49 370.73h6.25v6.25h-6.25z"/><path class="cls-1" d="M1260.99 370.73h6.25v6.25h-6.25zM1268.5 370.73h6.25v6.25h-6.25zM1276 370.73h6.25v6.25H1276z"/><path class="cls-21" d="M1283.5 370.73h6.25v6.25h-6.25z"/><path class="cls-25" d="M1336.02 370.73h6.25v6.25h-6.25z"/><path class="cls-1" d="M1343.53 370.73h6.25v6.25h-6.25zM1351.03 370.73h6.25v6.25h-6.25zM1358.53 370.73h6.25v6.25h-6.25zM1366.04 370.73h6.25v6.25h-6.25z"/><path class="cls-4" d="M1373.54 370.73h6.25v6.25h-6.25z"/><path class="cls-6" d="M1381.04 370.73h6.25v6.25h-6.25z"/><path class="cls-1" d="M1388.55 370.73h6.25v6.25h-6.25zM1396.05 370.73h6.25v6.25h-6.25zM1403.55 370.73h6.25v6.25h-6.25z"/><path class="cls-30" d="M1411.06 370.73h6.25v6.25h-6.25z"/><path class="cls-4" d="M1448.57 370.73h6.25v6.25h-6.25z"/><path class="cls-1" d="M1456.08 370.73h6.25v6.25h-6.25zM1463.58 370.73h6.25v6.25h-6.25zM1471.08 370.73h6.25v6.25h-6.25zM1478.59 370.73h6.25v6.25h-6.25z"/><path class="cls-16" d="M1486.09 370.73h6.25v6.25h-6.25z"/><path class="cls-18" d="M1628.65 370.73h6.25v6.25h-6.25z"/><path class="cls-1" d="M1636.15 370.73h6.25v6.25h-6.25zM1643.66 370.73h6.25v6.25h-6.25zM1651.16 370.73h6.25v6.25h-6.25z"/><path class="cls-14" d="M1658.66 370.73h6.25v6.25h-6.25z"/><path class="cls-21" d="M1741.2 370.73h6.25v6.25h-6.25z"/><path class="cls-1" d="M1748.7 370.73h6.25v6.25h-6.25zM1756.21 370.73h6.25v6.25h-6.25zM1763.71 370.73h6.25v6.25h-6.25zM1771.21 370.73h6.25v6.25h-6.25z"/><path class="cls-27" d="M1778.72 370.73h6.25v6.25h-6.25z"/><path class="cls-22" d="M1215.97 378.24h6.25v6.25h-6.25z"/><path class="cls-1" d="M1223.48 378.24h6.25v6.25h-6.25zM1230.98 378.24h6.25v6.25h-6.25zM1238.48 378.24h6.25v6.25h-6.25z"/><path class="cls-29" d="M1245.99 378.24h6.25v6.25h-6.25z"/><path class="cls-20" d="M1253.49 378.24h6.25v6.25h-6.25z"/><path class="cls-1" d="M1260.99 378.24h6.25v6.25h-6.25zM1268.5 378.24h6.25v6.25h-6.25zM1276 378.24h6.25v6.25H1276z"/><path class="cls-25" d="M1283.5 378.24h6.25v6.25h-6.25z"/><path class="cls-22" d="M1343.53 378.24h6.25v6.25h-6.25z"/><path class="cls-1" d="M1351.03 378.24h6.25v6.25h-6.25zM1358.53 378.24h6.25v6.25h-6.25zM1366.04 378.24h6.25v6.25h-6.25z"/><path class="cls-16" d="M1373.54 378.24h6.25v6.25h-6.25z"/><path class="cls-33" d="M1381.04 378.24h6.25v6.25h-6.25z"/><path class="cls-1" d="M1388.55 378.24h6.25v6.25h-6.25zM1396.05 378.24h6.25v6.25h-6.25zM1403.55 378.24h6.25v6.25h-6.25z"/><path class="cls-25" d="M1411.06 378.24h6.25v6.25h-6.25z"/><path class="cls-8" d="M1448.57 378.24h6.25v6.25h-6.25z"/><path class="cls-7" d="M1456.08 378.24h6.25v6.25h-6.25z"/><path class="cls-1" d="M1463.58 378.24h6.25v6.25h-6.25zM1471.08 378.24h6.25v6.25h-6.25zM1478.59 378.24h6.25v6.25h-6.25z"/><path class="cls-13" d="M1486.09 378.24h6.25v6.25h-6.25z"/><path class="cls-8" d="M1493.59 378.24h6.25v6.25h-6.25z"/><path class="cls-18" d="M1628.65 378.24h6.25v6.25h-6.25z"/><path class="cls-1" d="M1636.15 378.24h6.25v6.25h-6.25zM1643.66 378.24h6.25v6.25h-6.25zM1651.16 378.24h6.25v6.25h-6.25z"/><path class="cls-7" d="M1658.66 378.24h6.25v6.25h-6.25z"/><path class="cls-8" d="M1666.17 378.24h6.25v6.25h-6.25z"/><path class="cls-28" d="M1741.2 378.24h6.25v6.25h-6.25z"/><path class="cls-1" d="M1748.7 378.24h6.25v6.25h-6.25zM1756.21 378.24h6.25v6.25h-6.25zM1763.71 378.24h6.25v6.25h-6.25zM1771.21 378.24h6.25v6.25h-6.25z"/><path class="cls-25" d="M1778.72 378.24h6.25v6.25h-6.25z"/><path class="cls-10" d="M1215.97 385.74h6.25v6.25h-6.25z"/><path class="cls-1" d="M1223.48 385.74h6.25v6.25h-6.25zM1230.98 385.74h6.25v6.25h-6.25zM1238.48 385.74h6.25v6.25h-6.25z"/><path class="cls-12" d="M1245.99 385.74h6.25v6.25h-6.25z"/><path class="cls-9" d="M1253.49 385.74h6.25v6.25h-6.25z"/><path class="cls-1" d="M1260.99 385.74h6.25v6.25h-6.25zM1268.5 385.74h6.25v6.25h-6.25z"/><path class="cls-13" d="M1276 385.74h6.25v6.25H1276z"/><path class="cls-21" d="M1343.53 385.74h6.25v6.25h-6.25z"/><path class="cls-1" d="M1351.03 385.74h6.25v6.25h-6.25zM1358.53 385.74h6.25v6.25h-6.25zM1366.04 385.74h6.25v6.25h-6.25z"/><path class="cls-13" d="M1373.54 385.74h6.25v6.25h-6.25z"/><path class="cls-1" d="M1381.04 385.74h6.25v6.25h-6.25zM1388.55 385.74h6.25v6.25h-6.25zM1396.05 385.74h6.25v6.25h-6.25z"/><path class="cls-22" d="M1403.55 385.74h6.25v6.25h-6.25z"/><path class="cls-6" d="M1456.08 385.74h6.25v6.25h-6.25z"/><path class="cls-1" d="M1463.58 385.74h6.25v6.25h-6.25zM1471.08 385.74h6.25v6.25h-6.25zM1478.59 385.74h6.25v6.25h-6.25zM1486.09 385.74h6.25v6.25h-6.25z"/><path class="cls-21" d="M1493.59 385.74h6.25v6.25h-6.25z"/><path class="cls-27" d="M1568.62 385.74h6.25v6.25h-6.25z"/><path class="cls-26" d="M1576.13 385.74h6.25v6.25h-6.25z"/><path class="cls-25" d="M1583.63 385.74h6.25v6.25h-6.25z"/><path class="cls-18" d="M1628.65 385.74h6.25v6.25h-6.25z"/><path class="cls-1" d="M1636.15 385.74h6.25v6.25h-6.25zM1643.66 385.74h6.25v6.25h-6.25zM1651.16 385.74h6.25v6.25h-6.25zM1658.66 385.74h6.25v6.25h-6.25z"/><path class="cls-20" d="M1666.17 385.74h6.25v6.25h-6.25z"/><path class="cls-8" d="M1673.67 385.74h6.25v6.25h-6.25z"/><path class="cls-31" d="M1733.7 385.74h6.25v6.25h-6.25z"/><path class="cls-1" d="M1741.2 385.74h6.25v6.25h-6.25zM1748.7 385.74h6.25v6.25h-6.25zM1756.21 385.74h6.25v6.25h-6.25zM1763.71 385.74h6.25v6.25h-6.25z"/><path class="cls-13" d="M1771.21 385.74h6.25v6.25h-6.25z"/><path class="cls-27" d="M1816.23 385.74h6.25v6.25h-6.25z"/><path class="cls-29" d="M1823.73 385.74h6.25v6.25h-6.25z"/><path class="cls-28" d="M1831.24 385.74h6.25v6.25h-6.25z"/><path class="cls-6" d="M1838.74 385.74h6.25v6.25h-6.25z"/><path class="cls-24" d="M1846.24 385.74h6.25v6.25h-6.25z"/><path class="cls-4" d="M1215.97 393.24h6.25v6.25h-6.25z"/><path class="cls-1" d="M1223.48 393.24h6.25v6.25h-6.25zM1230.98 393.24h6.25v6.25h-6.25zM1238.48 393.24h6.25v6.25h-6.25zM1245.99 393.24h6.25v6.25h-6.25zM1253.49 393.24h6.25v6.25h-6.25zM1260.99 393.24h6.25v6.25h-6.25zM1268.5 393.24h6.25v6.25h-6.25z"/><path class="cls-10" d="M1276 393.24h6.25v6.25H1276z"/><path class="cls-25" d="M1343.53 393.24h6.25v6.25h-6.25z"/><path class="cls-1" d="M1351.03 393.24h6.25v6.25h-6.25zM1358.53 393.24h6.25v6.25h-6.25zM1366.04 393.24h6.25v6.25h-6.25zM1373.54 393.24h6.25v6.25h-6.25zM1381.04 393.24h6.25v6.25h-6.25zM1388.55 393.24h6.25v6.25h-6.25zM1396.05 393.24h6.25v6.25h-6.25z"/><path class="cls-10" d="M1403.55 393.24h6.25v6.25h-6.25z"/><path class="cls-25" d="M1456.08 393.24h6.25v6.25h-6.25z"/><path class="cls-32" d="M1463.58 393.24h6.25v6.25h-6.25z"/><path class="cls-1" d="M1471.08 393.24h6.25v6.25h-6.25zM1478.59 393.24h6.25v6.25h-6.25zM1486.09 393.24h6.25v6.25h-6.25zM1493.59 393.24h6.25v6.25h-6.25z"/><path class="cls-20" d="M1501.1 393.24h6.25v6.25h-6.25z"/><path class="cls-24" d="M1508.6 393.24h6.25v6.25h-6.25z"/><path class="cls-25" d="M1553.62 393.24h6.25v6.25h-6.25z"/><path class="cls-20" d="M1561.12 393.24h6.25v6.25h-6.25z"/><path class="cls-1" d="M1568.62 393.24h6.25v6.25h-6.25zM1576.13 393.24h6.25v6.25h-6.25z"/><path class="cls-23" d="M1583.63 393.24h6.25v6.25h-6.25z"/><path class="cls-16" d="M1591.13 393.24h6.25v6.25h-6.25z"/><path class="cls-24" d="M1598.64 393.24h6.25v6.25h-6.25z"/><path class="cls-18" d="M1628.65 393.24h6.25v6.25h-6.25z"/><path class="cls-1" d="M1636.15 393.24h6.25v6.25h-6.25zM1643.66 393.24h6.25v6.25h-6.25zM1651.16 393.24h6.25v6.25h-6.25zM1658.66 393.24h6.25v6.25h-6.25zM1666.17 393.24h6.25v6.25h-6.25z"/><path class="cls-28" d="M1673.67 393.24h6.25v6.25h-6.25z"/><path class="cls-17" d="M1681.17 393.24h6.25v6.25h-6.25z"/><path class="cls-8" d="M1718.69 393.24h6.25v6.25h-6.25z"/><path class="cls-19" d="M1726.19 393.24h6.25v6.25h-6.25z"/><path class="cls-5" d="M1733.7 393.24h6.25v6.25h-6.25z"/><path class="cls-1" d="M1741.2 393.24h6.25v6.25h-6.25zM1748.7 393.24h6.25v6.25h-6.25zM1756.21 393.24h6.25v6.25h-6.25zM1763.71 393.24h6.25v6.25h-6.25z"/><path class="cls-27" d="M1771.21 393.24h6.25v6.25h-6.25z"/><path class="cls-17" d="M1808.73 393.24h6.25v6.25h-6.25z"/><path class="cls-1" d="M1816.23 393.24h6.25v6.25h-6.25zM1823.73 393.24h6.25v6.25h-6.25zM1831.24 393.24h6.25v6.25h-6.25zM1838.74 393.24h6.25v6.25h-6.25z"/><path class="cls-28" d="M1846.24 393.24h6.25v6.25h-6.25z"/><path class="cls-9" d="M1223.48 400.74h6.25v6.25h-6.25z"/><path class="cls-1" d="M1230.98 400.74h6.25v6.25h-6.25zM1238.48 400.74h6.25v6.25h-6.25zM1245.99 400.74h6.25v6.25h-6.25zM1253.49 400.74h6.25v6.25h-6.25zM1260.99 400.74h6.25v6.25h-6.25zM1268.5 400.74h6.25v6.25h-6.25z"/><path class="cls-4" d="M1276 400.74h6.25v6.25H1276z"/><path class="cls-13" d="M1351.03 400.74h6.25v6.25h-6.25z"/><path class="cls-1" d="M1358.53 400.74h6.25v6.25h-6.25zM1366.04 400.74h6.25v6.25h-6.25zM1373.54 400.74h6.25v6.25h-6.25zM1381.04 400.74h6.25v6.25h-6.25zM1388.55 400.74h6.25v6.25h-6.25zM1396.05 400.74h6.25v6.25h-6.25z"/><path class="cls-4" d="M1403.55 400.74h6.25v6.25h-6.25z"/><path class="cls-27" d="M1463.58 400.74h6.25v6.25h-6.25z"/><path class="cls-1" d="M1471.08 400.74h6.25v6.25h-6.25zM1478.59 400.74h6.25v6.25h-6.25zM1486.09 400.74h6.25v6.25h-6.25zM1493.59 400.74h6.25v6.25h-6.25zM1501.1 400.74h6.25v6.25h-6.25z"/><path class="cls-23" d="M1508.6 400.74h6.25v6.25h-6.25z"/><path class="cls-22" d="M1516.1 400.74h6.25v6.25h-6.25z"/><path class="cls-26" d="M1523.61 400.74h6.25v6.25h-6.25z"/><path class="cls-6" d="M1531.11 400.74h6.25v6.25h-6.25z"/><path class="cls-26" d="M1538.61 400.74h6.25v6.25h-6.25z"/><path class="cls-13" d="M1546.11 400.74h6.25v6.25h-6.25z"/><path class="cls-1" d="M1553.62 400.74h6.25v6.25h-6.25zM1561.12 400.74h6.25v6.25h-6.25zM1568.62 400.74h6.25v6.25h-6.25zM1576.13 400.74h6.25v6.25h-6.25zM1583.63 400.74h6.25v6.25h-6.25z"/><path class="cls-15" d="M1591.13 400.74h6.25v6.25h-6.25z"/><path class="cls-25" d="M1598.64 400.74h6.25v6.25h-6.25z"/><path class="cls-18" d="M1628.65 400.74h6.25v6.25h-6.25z"/><path class="cls-1" d="M1636.15 400.74h6.25v6.25h-6.25zM1643.66 400.74h6.25v6.25h-6.25zM1651.16 400.74h6.25v6.25h-6.25zM1658.66 400.74h6.25v6.25h-6.25zM1666.17 400.74h6.25v6.25h-6.25zM1673.67 400.74h6.25v6.25h-6.25zM1681.17 400.74h6.25v6.25h-6.25z"/><path class="cls-15" d="M1688.68 400.74h6.25v6.25h-6.25z"/><path class="cls-28" d="M1696.18 400.74h6.25v6.25h-6.25z"/><path class="cls-29" d="M1703.68 400.74h6.25v6.25h-6.25z"/><path class="cls-9" d="M1711.19 400.74h6.25v6.25h-6.25z"/><path class="cls-1" d="M1718.69 400.74h6.25v6.25h-6.25zM1726.19 400.74h6.25v6.25h-6.25zM1733.7 400.74h6.25v6.25h-6.25zM1741.2 400.74h6.25v6.25h-6.25zM1748.7 400.74h6.25v6.25h-6.25zM1756.21 400.74h6.25v6.25h-6.25z"/><path class="cls-11" d="M1763.71 400.74h6.25v6.25h-6.25z"/><path class="cls-26" d="M1808.73 400.74h6.25v6.25h-6.25z"/><path class="cls-1" d="M1816.23 400.74h6.25v6.25h-6.25zM1823.73 400.74h6.25v6.25h-6.25zM1831.24 400.74h6.25v6.25h-6.25zM1838.74 400.74h6.25v6.25h-6.25zM1846.24 400.74h6.25v6.25h-6.25z"/><path class="cls-25" d="M1853.75 400.74h6.25v6.25h-6.25z"/><path class="cls-16" d="M1223.48 408.25h6.25v6.25h-6.25z"/><path class="cls-1" d="M1230.98 408.25h6.25v6.25h-6.25zM1238.48 408.25h6.25v6.25h-6.25zM1245.99 408.25h6.25v6.25h-6.25zM1253.49 408.25h6.25v6.25h-6.25zM1260.99 408.25h6.25v6.25h-6.25z"/><path class="cls-33" d="M1268.5 408.25h6.25v6.25h-6.25z"/><path class="cls-10" d="M1351.03 408.25h6.25v6.25h-6.25z"/><path class="cls-1" d="M1358.53 408.25h6.25v6.25h-6.25zM1366.04 408.25h6.25v6.25h-6.25zM1373.54 408.25h6.25v6.25h-6.25zM1381.04 408.25h6.25v6.25h-6.25zM1388.55 408.25h6.25v6.25h-6.25z"/><path class="cls-33" d="M1396.05 408.25h6.25v6.25h-6.25z"/><path class="cls-31" d="M1471.08 408.25h6.25v6.25h-6.25z"/><path class="cls-23" d="M1478.59 408.25h6.25v6.25h-6.25z"/><path class="cls-1" d="M1486.09 408.25h6.25v6.25h-6.25zM1493.59 408.25h6.25v6.25h-6.25zM1501.1 408.25h6.25v6.25h-6.25zM1508.6 408.25h6.25v6.25h-6.25zM1516.1 408.25h6.25v6.25h-6.25zM1523.61 408.25h6.25v6.25h-6.25zM1531.11 408.25h6.25v6.25h-6.25zM1538.61 408.25h6.25v6.25h-6.25zM1546.11 408.25h6.25v6.25h-6.25zM1553.62 408.25h6.25v6.25h-6.25zM1561.12 408.25h6.25v6.25h-6.25zM1568.62 408.25h6.25v6.25h-6.25zM1576.13 408.25h6.25v6.25h-6.25z"/><path class="cls-9" d="M1583.63 408.25h6.25v6.25h-6.25z"/><path class="cls-4" d="M1591.13 408.25h6.25v6.25h-6.25z"/><path class="cls-18" d="M1628.65 408.25h6.25v6.25h-6.25z"/><path class="cls-1" d="M1636.15 408.25h6.25v6.25h-6.25zM1643.66 408.25h6.25v6.25h-6.25zM1651.16 408.25h6.25v6.25h-6.25z"/><path class="cls-33" d="M1658.66 408.25h6.25v6.25h-6.25z"/><path class="cls-22" d="M1666.17 408.25h6.25v6.25h-6.25z"/><path class="cls-1" d="M1673.67 408.25h6.25v6.25h-6.25zM1681.17 408.25h6.25v6.25h-6.25zM1688.68 408.25h6.25v6.25h-6.25zM1696.18 408.25h6.25v6.25h-6.25zM1703.68 408.25h6.25v6.25h-6.25zM1711.19 408.25h6.25v6.25h-6.25zM1718.69 408.25h6.25v6.25h-6.25zM1726.19 408.25h6.25v6.25h-6.25zM1733.7 408.25h6.25v6.25h-6.25zM1741.2 408.25h6.25v6.25h-6.25zM1748.7 408.25h6.25v6.25h-6.25z"/><path class="cls-18" d="M1756.21 408.25h6.25v6.25h-6.25z"/><path class="cls-24" d="M1763.71 408.25h6.25v6.25h-6.25z"/><path class="cls-26" d="M1808.73 408.25h6.25v6.25h-6.25z"/><path class="cls-1" d="M1816.23 408.25h6.25v6.25h-6.25zM1823.73 408.25h6.25v6.25h-6.25zM1831.24 408.25h6.25v6.25h-6.25zM1838.74 408.25h6.25v6.25h-6.25zM1846.24 408.25h6.25v6.25h-6.25z"/><path class="cls-25" d="M1853.75 408.25h6.25v6.25h-6.25z"/><path class="cls-17" d="M1223.48 415.75h6.25V422h-6.25z"/><path class="cls-1" d="M1230.98 415.75h6.25V422h-6.25zM1238.48 415.75h6.25V422h-6.25zM1245.99 415.75h6.25V422h-6.25zM1253.49 415.75h6.25V422h-6.25zM1260.99 415.75h6.25V422h-6.25z"/><path class="cls-16" d="M1268.5 415.75h6.25V422h-6.25z"/><path class="cls-4" d="M1351.03 415.75h6.25V422h-6.25z"/><path class="cls-1" d="M1358.53 415.75h6.25V422h-6.25zM1366.04 415.75h6.25V422h-6.25zM1373.54 415.75h6.25V422h-6.25zM1381.04 415.75h6.25V422h-6.25zM1388.55 415.75h6.25V422h-6.25z"/><path class="cls-16" d="M1396.05 415.75h6.25V422h-6.25z"/><path class="cls-4" d="M1478.59 415.75h6.25V422h-6.25z"/><path class="cls-29" d="M1486.09 415.75h6.25V422h-6.25z"/><path class="cls-1" d="M1493.59 415.75h6.25V422h-6.25zM1501.1 415.75h6.25V422h-6.25zM1508.6 415.75h6.25V422h-6.25zM1516.1 415.75h6.25V422h-6.25zM1523.61 415.75h6.25V422h-6.25zM1531.11 415.75h6.25V422h-6.25zM1538.61 415.75h6.25V422h-6.25zM1546.11 415.75h6.25V422h-6.25zM1553.62 415.75h6.25V422h-6.25zM1561.12 415.75h6.25V422h-6.25z"/><path class="cls-32" d="M1568.62 415.75h6.25V422h-6.25z"/><path class="cls-19" d="M1576.13 415.75h6.25V422h-6.25z"/><path class="cls-8" d="M1583.63 415.75h6.25V422h-6.25z"/><path class="cls-18" d="M1628.65 415.75h6.25V422h-6.25z"/><path class="cls-1" d="M1636.15 415.75h6.25V422h-6.25zM1643.66 415.75h6.25V422h-6.25zM1651.16 415.75h6.25V422h-6.25z"/><path class="cls-18" d="M1658.66 415.75h6.25V422h-6.25z"/><path class="cls-8" d="M1666.17 415.75h6.25V422h-6.25z"/><path class="cls-10" d="M1673.67 415.75h6.25V422h-6.25z"/><path class="cls-32" d="M1681.17 415.75h6.25V422h-6.25z"/><path class="cls-1" d="M1688.68 415.75h6.25V422h-6.25zM1696.18 415.75h6.25V422h-6.25zM1703.68 415.75h6.25V422h-6.25zM1711.19 415.75h6.25V422h-6.25zM1718.69 415.75h6.25V422h-6.25zM1726.19 415.75h6.25V422h-6.25zM1733.7 415.75h6.25V422h-6.25z"/><path class="cls-12" d="M1741.2 415.75h6.25V422h-6.25z"/><path class="cls-10" d="M1748.7 415.75h6.25V422h-6.25z"/><path class="cls-8" d="M1756.21 415.75h6.25V422h-6.25z"/><path class="cls-17" d="M1808.73 415.75h6.25V422h-6.25z"/><path class="cls-5" d="M1816.23 415.75h6.25V422h-6.25z"/><path class="cls-1" d="M1823.73 415.75h6.25V422h-6.25zM1831.24 415.75h6.25V422h-6.25zM1838.74 415.75h6.25V422h-6.25z"/><path class="cls-18" d="M1846.24 415.75h6.25V422h-6.25z"/><path class="cls-21" d="M1230.98 423.25h6.25v6.25h-6.25z"/><path class="cls-10" d="M1238.48 423.25h6.25v6.25h-6.25zM1245.99 423.25h6.25v6.25h-6.25zM1253.49 423.25h6.25v6.25h-6.25zM1260.99 423.25h6.25v6.25h-6.25z"/><path class="cls-25" d="M1268.5 423.25h6.25v6.25h-6.25z"/><path class="cls-30" d="M1358.53 423.25h6.25v6.25h-6.25z"/><path class="cls-10" d="M1366.04 423.25h6.25v6.25h-6.25zM1373.54 423.25h6.25v6.25h-6.25zM1381.04 423.25h6.25v6.25h-6.25zM1388.55 423.25h6.25v6.25h-6.25z"/><path class="cls-25" d="M1396.05 423.25h6.25v6.25h-6.25zM1493.59 423.25h6.25v6.25h-6.25z"/><path class="cls-30" d="M1501.1 423.25h6.25v6.25h-6.25z"/><path class="cls-26" d="M1508.6 423.25h6.25v6.25h-6.25z"/><path class="cls-28" d="M1516.1 423.25h6.25v6.25h-6.25z"/><path class="cls-33" d="M1523.61 423.25h6.25v6.25h-6.25z"/><path class="cls-14" d="M1531.11 423.25h6.25v6.25h-6.25z"/><path class="cls-22" d="M1538.61 423.25h6.25v6.25h-6.25z"/><path class="cls-29" d="M1546.11 423.25h6.25v6.25h-6.25z"/><path class="cls-6" d="M1553.62 423.25h6.25v6.25h-6.25z"/><path class="cls-27" d="M1561.12 423.25h6.25v6.25h-6.25z"/><path class="cls-8" d="M1568.62 423.25h6.25v6.25h-6.25z"/><path class="cls-27" d="M1628.65 423.25h6.25v6.25h-6.25z"/><path class="cls-31" d="M1636.15 423.25h6.25v6.25h-6.25zM1643.66 423.25h6.25v6.25h-6.25zM1651.16 423.25h6.25v6.25h-6.25z"/><path class="cls-17" d="M1658.66 423.25h6.25v6.25h-6.25z"/><path class="cls-24" d="M1681.17 423.25h6.25v6.25h-6.25z"/><path class="cls-27" d="M1688.68 423.25h6.25v6.25h-6.25z"/><path class="cls-6" d="M1696.18 423.25h6.25v6.25h-6.25z"/><path class="cls-11" d="M1703.68 423.25h6.25v6.25h-6.25z"/><path class="cls-18" d="M1711.19 423.25h6.25v6.25h-6.25z"/><path class="cls-11" d="M1718.69 423.25h6.25v6.25h-6.25z"/><path class="cls-6" d="M1726.19 423.25h6.25v6.25h-6.25z"/><path class="cls-27" d="M1733.7 423.25h6.25v6.25h-6.25z"/><path class="cls-24" d="M1741.2 423.25h6.25v6.25h-6.25z"/><path class="cls-17" d="M1816.23 423.25h6.25v6.25h-6.25z"/><path class="cls-26" d="M1823.73 423.25h6.25v6.25h-6.25z"/><path class="cls-11" d="M1831.24 423.25h6.25v6.25h-6.25z"/><path class="cls-10" d="M1838.74 423.25h6.25v6.25h-6.25z"/><path class="cls-24" d="M1846.24 423.25h6.25v6.25h-6.25z"/></g></svg>