<svg data-name="Layer 1" xmlns="http://www.w3.org/2000/svg" width="919.49" height="926.36"><path d="M459.75 924.86A458.36 458.36 0 0 1 281.38 44.38a458.36 458.36 0 0 1 356.74 844.46 455.33 455.33 0 0 1-178.37 36.02Z" style="fill:#0d3456"/><path d="M459.75 9.86c252.25 0 456.74 204.5 456.74 456.75S712 923.36 459.75 923.36 3 718.86 3 466.61 207.49 9.86 459.75 9.86m0-3a459.87 459.87 0 0 0-179 883.37A459.87 459.87 0 0 0 638.7 43a456.93 456.93 0 0 0-179-36.13Z" style="fill:#0b2c44"/><path d="m235.83 208.64 421.88-41.95 18.11 182.12L466 369.67l5.74 57.66L625.5 412l16.73 168.21-155.76 15.53 17.47 162.59-211.36 21Zm517.3 370.61V490h-64.19L768 353.09 847.07 490h-64.19v89.24Zm2.57-231.76v-24.3H780v24.3Zm-54.59 0v-24.3h24.29v24.3Zm54.59-116.83v-24.3H780v24.3Zm-54.59 0v-24.3h24.29v24.3ZM688.94 63.94h64.19V1.5h29.75v62.44h64.19L768 200.86Z" style="fill:#ff4e00"/><path d="M781.38 3v62.44h63.09L768 197.86 691.54 65.44h63.09V3h26.75m-125 165.33 17.82 179.13L467.37 368l-3 .3.3 3 5.44 54.7.3 3 3-.3 150.76-15 16.43 165.23-152.78 15.17-3 .3.33 3L502.29 757l-208.36 20.7L237.47 210l418.89-41.66m122.14 39.52v21.3h-21.3v-21.3h21.3m-54.6 0v21.3h-21.29v-21.3h21.29m54.6 116.83V346h-21.3v-21.3h21.3m-54.6 0V346h-21.29v-21.3h21.29m44.1 31.4 76.47 132.42h-63.09v89.24h-26.75v-89.25h-63.09L768 356.09M784.38 0h-32.75v62.44h-65.29L768 203.86l81.67-141.42h-65.29V0ZM659.05 165.05 234.19 207.3 291.24 781l214.36-21.33-17.48-162.59 155.75-15.48-17-171.2-153.77 15.29-5.44-54.69 209.8-20.86-18.41-185.1Zm122.45 39.81h-27.3v27.3h27.3v-27.3Zm-54.6 0h-27.29v27.3h27.29v-27.3Zm54.6 116.83h-27.3V349h27.3v-27.3Zm-54.6 0h-27.29V349h27.29v-27.3Zm41.1 28.4-81.66 141.42h65.29v89.24h32.75v-89.24h65.29L768 350.09Z" style="fill:#cc3e00"/><path style="fill:#fff" d="M315.66 738.42V228.16h321.17v97.53H434.25v132.88h168.89v98.46H434.25v181.39H315.66z"/><path d="M635.33 229.66v94.53H432.75v135.88h168.89v95.46H432.75v181.39H317.16V229.66h318.17m3-3H314.16v513.26h121.59V558.53h168.89V457.07H435.75V327.19h202.58V226.66Z" style="fill:#ccc"/></svg>